<?xml version="1.0" standalone="no"?>
<!DOCTYPE svg PUBLIC "-//W3C//DTD SVG 20010904//EN"
 "http://www.w3.org/TR/2001/REC-SVG-20010904/DTD/svg10.dtd">
<svg version="1.0" xmlns="http://www.w3.org/2000/svg"
 width="1144.000000pt" height="1144.000000pt" viewBox="0 0 1144.000000 1144.000000"
 preserveAspectRatio="xMidYMid meet">
<metadata>
Created by potrace 1.14, written by Peter Selinger 2001-2017
</metadata>
<g transform="translate(0.000000,1144.000000) scale(0.100000,-0.100000)"
fill="#000000" stroke="none">
<path d="M5786 11248 c3 -5 10 -6 15 -3 13 9 11 12 -6 12 -8 0 -12 -4 -9 -9z"/>
<path d="M5720 11235 c-7 -8 -17 -12 -23 -8 -5 3 -7 1 -4 -5 9 -14 -3 -43 -14
-36 -5 3 -9 -6 -9 -20 0 -14 -4 -28 -10 -31 -5 -3 -10 -12 -9 -18 0 -9 2 -9 6
1 9 23 20 12 15 -14 -3 -19 -1 -25 7 -20 6 4 11 1 11 -9 0 -9 7 -23 15 -31 12
-12 15 -12 15 -2 0 10 2 10 9 -1 5 -7 20 -15 34 -16 14 -2 30 -6 36 -9 5 -4
12 2 16 13 4 13 13 18 25 16 13 -3 17 1 13 11 -3 8 -1 14 5 14 5 0 12 8 16 18
3 9 9 23 12 31 4 8 2 11 -3 8 -11 -7 -11 33 1 52 6 10 6 12 -2 7 -7 -4 -12 -1
-12 8 0 10 -9 16 -22 16 -19 0 -20 2 -8 10 12 8 12 10 -5 11 -25 1 -45 5 -69
15 -15 6 -17 4 -11 -7 7 -12 6 -12 -7 -1 -12 10 -18 9 -28 -3z"/>
<path d="M5699 10858 c13 -17 8 -23 -13 -19 -5 1 -3 -5 4 -14 11 -14 11 -16
-1 -13 -8 2 -13 -4 -12 -15 1 -13 -4 -17 -14 -13 -12 5 -14 1 -11 -19 4 -20 3
-23 -8 -14 -11 9 -14 7 -14 -12 0 -13 -11 -37 -26 -52 -15 -16 -22 -32 -18
-40 5 -8 2 -7 -9 2 -15 12 -17 12 -11 -4 6 -14 4 -16 -7 -10 -12 8 -12 6 0 -8
12 -15 11 -17 -10 -17 -22 -1 -23 -2 -6 -14 16 -12 16 -14 2 -20 -11 -4 -14
-2 -9 6 5 7 3 8 -5 4 -7 -5 -10 -11 -7 -14 3 -3 -2 -15 -11 -26 -17 -20 -17
-20 0 -7 15 12 17 12 11 -3 -3 -9 -11 -16 -16 -16 -6 0 -7 -7 -4 -16 4 -10 2
-13 -6 -8 -7 5 -9 -1 -6 -20 5 -23 3 -24 -10 -14 -13 11 -14 11 -8 -1 5 -8 3
-17 -5 -23 -11 -8 -11 -9 3 -5 11 4 15 1 13 -11 -2 -9 -4 -21 -4 -25 -1 -5 -7
-5 -13 -1 -9 5 -9 2 1 -9 9 -11 10 -17 2 -17 -6 0 -11 -7 -11 -16 0 -8 4 -13
8 -10 4 2 9 -4 9 -15 1 -11 -2 -17 -7 -14 -4 3 -6 -4 -3 -15 3 -11 9 -17 14
-14 5 3 9 0 9 -5 0 -6 -5 -11 -11 -11 -8 0 -8 -4 0 -14 8 -10 8 -16 -2 -25 -8
-6 -18 -7 -22 -3 -5 4 -5 1 -1 -6 5 -9 12 -9 28 -1 15 8 19 8 14 0 -4 -6 -16
-16 -28 -22 -15 -8 -19 -8 -14 0 4 6 0 11 -8 11 -9 0 -16 6 -16 13 0 8 -4 7
-10 -3 -9 -13 -10 -13 -10 0 0 9 -3 11 -8 5 -9 -13 -75 -18 -67 -5 3 5 0 7 -9
4 -8 -3 -17 -13 -19 -22 -4 -14 -5 -13 -6 2 -1 20 -1 20 -17 0 -8 -10 -13 -14
-10 -9 2 6 -4 11 -14 11 -10 0 -18 -3 -18 -6 2 -24 -4 -32 -22 -27 -12 3 -17
1 -14 -5 3 -5 -3 -12 -14 -15 -14 -3 -19 -10 -14 -21 5 -14 3 -15 -9 -5 -12
10 -15 8 -16 -8 -1 -12 2 -17 10 -13 7 4 8 3 4 -2 -5 -5 -14 -9 -20 -9 -7 0
-12 -7 -12 -15 0 -8 -7 -21 -15 -28 -13 -12 -13 -13 0 -6 12 6 13 4 3 -7 -16
-16 -17 -33 -1 -23 7 5 8 3 4 -5 -5 -7 -14 -10 -22 -7 -11 4 -11 0 2 -19 15
-23 15 -25 -2 -25 -17 0 -17 -1 2 -16 15 -13 16 -15 2 -10 -12 3 -15 1 -11 -9
3 -8 9 -12 14 -9 5 3 4 -7 -1 -22 -8 -21 -8 -25 3 -21 8 3 14 -1 14 -9 0 -7
-5 -11 -11 -8 -6 3 0 -4 14 -16 14 -12 19 -19 13 -15 -21 10 -15 -9 7 -25 14
-10 16 -16 7 -22 -8 -5 -6 -8 7 -8 13 0 16 -5 12 -16 -4 -11 -2 -15 8 -11 8 3
17 -1 20 -9 4 -9 11 -12 18 -8 10 6 10 4 0 -8 -11 -14 -10 -16 5 -14 19 3 43
-15 36 -27 -7 -11 21 -4 29 8 5 6 8 5 8 -3 0 -7 5 -10 10 -7 6 4 8 10 5 15 -3
4 3 14 13 21 15 13 16 12 4 -3 -10 -12 -10 -18 -1 -24 7 -4 9 -3 5 4 -3 6 -2
13 4 17 6 4 8 10 5 15 -3 5 3 14 12 20 17 11 17 11 1 6 -12 -3 -18 0 -18 9 0
8 3 14 8 14 19 -3 23 2 13 15 -8 10 -9 16 -1 21 6 3 8 10 5 15 -3 4 3 6 14 3
10 -3 22 1 26 8 6 8 4 10 -6 4 -8 -5 -10 -4 -6 0 11 13 38 15 31 3 -4 -6 2 -6
14 1 27 14 35 14 26 -1 -5 -8 0 -7 11 2 15 12 17 12 10 1 -6 -11 -3 -13 13 -9
13 4 20 2 19 -6 -1 -6 3 -10 9 -9 7 1 15 -9 18 -23 4 -14 10 -22 15 -19 5 2
12 -2 15 -11 4 -10 2 -13 -7 -9 -6 4 -4 0 5 -8 10 -8 15 -17 11 -20 -3 -4 0
-13 7 -22 10 -12 9 -15 -6 -15 -12 0 -15 -3 -7 -8 6 -4 11 -24 11 -44 0 -20 4
-43 8 -50 6 -10 4 -10 -9 1 -15 12 -17 12 -11 -3 4 -9 1 -16 -6 -16 -9 0 -9
-4 -2 -12 12 -15 -20 -62 -33 -50 -5 4 -6 -1 -2 -10 3 -10 0 -19 -10 -22 -8
-4 -13 -13 -9 -21 4 -12 2 -13 -13 -5 -15 7 -18 6 -17 -6 0 -9 -10 -23 -24
-32 -13 -10 -21 -12 -18 -6 4 6 1 11 -7 11 -8 0 -12 -4 -9 -9 3 -4 -2 -11 -10
-14 -9 -3 -13 -11 -9 -18 4 -6 -1 -5 -10 3 -17 13 -72 8 -63 -7 2 -4 -4 -8
-14 -8 -10 0 -17 3 -15 6 2 4 -36 5 -78 1 -5 -1 -5 -6 -1 -13 4 -7 3 -8 -4 -4
-6 4 -9 12 -6 20 3 9 -5 12 -31 11 -20 0 -39 3 -42 9 -4 5 -1 6 7 1 8 -5 11
-4 7 3 -4 5 -15 8 -26 5 -12 -3 -20 2 -24 16 -3 14 -10 19 -20 15 -15 -5 -34
29 -28 50 1 5 -4 4 -12 -3 -12 -9 -16 -8 -21 4 -4 11 -2 14 6 9 7 -5 8 -3 2 7
-13 21 -11 32 6 47 13 11 13 11 -1 7 -9 -4 -16 0 -16 9 0 8 6 12 14 9 12 -5
18 13 14 46 -2 7 2 10 7 7 6 -3 12 1 16 9 3 8 1 15 -4 15 -6 0 -10 4 -10 10 0
5 6 7 14 4 15 -6 15 7 1 39 -4 9 -5 24 -1 32 3 8 1 15 -5 15 -6 0 -7 5 -4 10
3 6 2 10 -4 10 -10 0 -27 39 -22 54 1 5 -5 4 -13 -4 -14 -11 -16 -9 -16 11 0
19 -2 21 -10 9 -8 -13 -10 -12 -10 4 0 12 -5 16 -16 12 -8 -3 -12 -2 -9 4 3 6
2 10 -4 10 -6 0 -15 10 -22 21 -8 15 -8 19 0 15 15 -10 14 17 -1 33 -10 11
-10 13 0 7 8 -5 12 1 12 19 0 14 4 24 9 21 5 -4 7 3 4 14 -3 11 -1 20 5 20 5
0 9 8 8 18 0 10 5 16 14 14 10 -1 9 3 -5 14 -19 16 -19 16 8 11 l28 -4 -21 19
c-24 23 -27 36 -3 17 15 -13 16 -12 11 8 -4 13 -1 26 4 30 7 3 8 1 4 -5 -5 -8
-1 -10 10 -5 15 6 15 7 0 15 -14 8 -15 13 -5 24 14 17 9 17 -26 4 -22 -8 -26
-8 -22 3 3 8 -1 14 -8 14 -7 0 -11 -5 -9 -11 3 -7 -12 -12 -38 -13 -24 -1 -37
1 -30 4 10 4 9 9 -5 20 -10 8 -12 12 -5 8 18 -9 15 6 -5 22 -10 8 -12 12 -5 8
6 -3 12 -1 12 4 0 6 -7 11 -16 11 -12 0 -15 6 -11 21 4 15 2 19 -8 15 -9 -3
-12 1 -10 14 4 22 -19 50 -41 50 -8 0 -12 5 -9 10 3 6 1 10 -5 10 -6 0 -8 5
-5 10 3 6 0 10 -8 10 -8 0 -20 7 -27 15 -7 9 -15 13 -18 10 -3 -3 -11 0 -18 6
-11 9 -16 6 -23 -12 -4 -13 -12 -24 -17 -24 -5 0 -9 -7 -9 -15 -1 -8 -7 -14
-15 -12 -11 3 -11 0 1 -14 12 -15 12 -16 0 -9 -11 6 -13 2 -9 -19 5 -23 3 -24
-10 -14 -13 11 -14 10 -4 -8 8 -16 8 -24 0 -32 -9 -9 -9 -12 1 -12 10 0 11 -3
3 -13 -7 -8 -7 -18 -2 -27 6 -9 5 -17 -3 -22 -9 -6 -9 -10 2 -17 10 -7 11 -13
2 -30 -7 -12 -10 -25 -7 -30 3 -4 -2 -17 -10 -27 -9 -10 -13 -14 -10 -7 4 6 2
14 -4 18 -5 3 -10 1 -10 -4 0 -6 -5 -11 -11 -11 -5 0 -8 4 -4 9 3 5 1 13 -5
16 -6 4 -10 3 -9 -2 4 -21 -2 -33 -15 -33 -20 0 -29 -17 -15 -26 8 -5 9 -3 4
6 -5 9 -4 11 4 6 9 -6 9 -11 1 -21 -8 -10 -8 -15 1 -21 8 -5 9 -3 4 6 -6 9 -4
11 4 6 7 -5 10 -14 7 -22 -3 -8 -2 -13 2 -13 22 4 42 -2 37 -11 -3 -5 4 -10
15 -10 16 0 20 -4 16 -16 -5 -12 -1 -14 15 -9 15 5 19 4 15 -4 -4 -6 -2 -11 4
-11 6 0 8 -4 5 -10 -3 -5 1 -10 10 -10 8 0 18 -7 21 -15 4 -8 11 -12 17 -8 5
3 7 2 4 -3 -3 -6 -2 -16 3 -24 5 -9 5 -19 -2 -27 -8 -10 -7 -12 3 -8 10 4 15
-1 15 -14 0 -16 -3 -18 -15 -8 -12 10 -13 9 -1 -13 13 -24 12 -24 -5 -10 -17
14 -18 14 -5 -10 16 -30 16 -28 -7 -47 -10 -8 -12 -11 -4 -7 11 5 13 3 8 -10
-4 -10 -7 -22 -7 -27 0 -6 -6 -7 -12 -3 -10 5 -10 4 -1 -6 6 -7 9 -19 6 -26
-3 -8 0 -14 7 -14 7 0 9 -9 6 -22 -3 -13 -3 -18 0 -11 4 8 10 7 24 -4 10 -9
17 -20 14 -25 -3 -4 0 -8 6 -8 6 0 8 -4 5 -10 -3 -5 6 -12 20 -16 14 -3 22
-11 18 -17 -4 -7 0 -8 12 -3 15 5 16 4 5 -9 -7 -9 -9 -15 -4 -14 21 4 35 -2
29 -11 -3 -5 2 -10 12 -11 16 0 16 -1 -2 -9 -11 -5 -15 -9 -9 -9 16 -1 13 -29
-4 -36 -12 -4 -12 -8 -1 -22 12 -14 12 -16 0 -8 -11 6 -13 4 -8 -8 4 -12 1
-17 -11 -18 -9 0 -12 -3 -5 -5 7 -3 9 -12 6 -20 -3 -7 -9 -11 -14 -8 -5 3 -9
-2 -9 -10 0 -10 -6 -13 -15 -10 -8 4 -15 1 -15 -5 0 -6 5 -11 12 -11 15 0 0
-15 -15 -15 -7 0 -11 -8 -11 -18 1 -9 -2 -14 -7 -11 -15 9 -50 -6 -43 -18 5
-8 1 -9 -10 -5 -14 6 -17 3 -12 -9 5 -14 4 -15 -9 -4 -12 10 -15 9 -15 -6 0
-15 -2 -16 -9 -5 -6 9 -11 10 -15 2 -4 -6 -13 -11 -19 -11 -7 0 -6 4 3 10 8 5
11 10 7 10 -4 0 -18 -7 -30 -15 -20 -12 -26 -13 -50 0 -18 9 -29 10 -33 3 -4
-6 -10 -5 -15 3 -7 12 -9 11 -9 0 0 -11 -4 -10 -16 5 -8 10 -13 12 -9 4 4 -9
1 -8 -8 3 -11 14 -16 15 -20 5 -4 -9 -6 -7 -6 4 -1 11 -6 15 -16 11 -10 -3
-15 0 -13 8 2 9 -5 13 -20 11 -18 -3 -22 1 -20 15 2 12 -2 17 -14 15 -11 -2
-18 3 -18 13 0 15 -15 21 -23 8 -2 -5 -2 -2 0 6 2 8 -1 17 -7 21 -6 3 -15 21
-20 39 -8 28 -7 31 5 21 23 -19 17 -3 -7 21 -13 12 -18 20 -13 17 6 -3 16 0
23 8 7 8 8 14 2 14 -16 0 -12 32 8 47 10 9 11 11 2 7 -13 -7 -8 2 29 46 2 3 1
-4 -3 -14 -7 -19 -6 -19 13 -2 21 19 69 25 80 10 3 -5 13 -10 21 -12 8 -2 17
-8 18 -13 2 -5 8 -9 14 -9 15 0 38 -27 30 -36 -4 -5 1 -2 11 6 15 11 18 11 15
0 -5 -23 30 -23 42 1 10 17 9 20 -2 14 -7 -4 0 4 16 19 16 14 24 26 17 26 -7
0 -9 5 -6 10 4 6 10 8 14 6 4 -3 8 1 8 9 0 8 -3 12 -7 10 -3 -2 -6 7 -6 20 0
13 4 21 8 19 5 -3 5 -11 2 -17 -4 -7 -3 -9 1 -5 13 12 15 58 3 58 -7 0 -6 5 1
14 9 11 9 16 0 22 -8 5 -9 3 -4 -6 5 -9 4 -11 -4 -6 -17 11 -2 29 18 21 10 -4
8 1 -6 15 -22 20 -31 36 -15 26 4 -2 8 5 9 17 0 12 -1 16 -4 10 -8 -20 -22
-15 -18 6 2 11 -3 22 -12 25 -9 4 -13 13 -9 22 4 11 2 15 -8 11 -10 -4 -13 -1
-9 9 3 9 -1 14 -13 14 -16 0 -17 2 -4 11 12 9 11 10 -7 6 -15 -3 -20 -1 -16 9
3 8 0 14 -7 14 -6 0 -9 4 -6 8 3 5 -1 9 -9 9 -8 0 -12 -5 -8 -10 3 -5 -4 -4
-16 2 -11 7 -21 17 -21 24 0 7 -4 6 -10 -3 -5 -8 -10 -10 -10 -4 0 6 -6 11
-12 12 -7 0 -25 3 -40 5 -16 2 -28 0 -28 -4 0 -5 -5 -9 -11 -9 -5 0 -7 4 -4
10 3 6 -1 7 -9 4 -9 -3 -16 -11 -16 -18 0 -7 -3 -7 -8 -1 -12 17 -32 16 -32
-1 0 -10 -5 -14 -16 -10 -10 4 -13 2 -8 -6 5 -8 2 -9 -10 -5 -11 4 -19 1 -24
-11 -8 -20 -59 -25 -59 -5 0 7 3 13 7 13 3 0 6 9 7 20 1 12 -3 18 -9 14 -6 -4
-6 1 1 14 14 25 14 43 1 22 -8 -13 -10 -13 -10 2 0 9 6 19 13 21 7 3 5 6 -5 6
-10 1 -19 9 -20 19 -1 9 -2 24 -4 32 -1 8 -2 19 -3 24 -1 5 -8 3 -16 -4 -12
-10 -14 -8 -10 9 2 14 -1 21 -11 21 -9 0 -12 5 -8 12 4 7 3 8 -4 4 -6 -4 -19
2 -29 14 -10 11 -23 20 -30 20 -7 0 -13 7 -13 16 0 8 -4 12 -10 9 -5 -3 -10
-2 -10 4 0 5 -9 8 -21 6 -17 -4 -19 -2 -8 11 6 8 9 17 5 21 -3 3 -6 2 -6 -4 0
-14 -32 -11 -48 5 -7 6 -20 12 -28 12 -8 0 -12 5 -9 10 10 16 -2 12 -21 -7
-17 -17 -17 -17 -11 -1 3 10 2 20 -3 23 -6 4 -10 2 -10 -3 0 -5 -7 -9 -15 -9
-8 0 -12 4 -9 9 3 4 -4 8 -15 8 -12 0 -21 5 -21 11 0 8 -5 8 -15 -1 -12 -10
-18 -8 -33 10 -15 18 -21 20 -27 10 -5 -8 -4 -11 3 -6 6 3 13 2 16 -3 4 -5 -2
-8 -11 -6 -10 2 -22 4 -26 4 -5 1 -6 5 -3 9 3 5 -2 9 -10 9 -9 0 -13 -6 -9
-15 4 -12 3 -12 -9 -3 -11 9 -13 7 -13 -14 0 -14 4 -22 10 -18 6 4 8 0 4 -10
-4 -12 -1 -17 11 -17 15 0 15 -2 2 -10 -11 -7 -11 -10 -2 -10 7 0 10 -5 7 -10
-4 -6 -3 -10 2 -9 4 1 15 1 23 0 12 -1 12 -3 2 -10 -11 -6 -8 -14 13 -35 14
-14 20 -26 13 -26 -9 0 -9 -3 2 -10 8 -5 11 -10 6 -10 -6 0 -2 -6 9 -13 10 -8
15 -19 11 -25 -4 -7 -3 -12 3 -12 5 0 13 -9 16 -20 3 -11 14 -20 23 -20 15 0
15 -2 2 -10 -12 -7 -12 -10 -1 -10 8 0 11 -6 7 -16 -4 -11 1 -18 14 -21 16 -4
18 -8 9 -20 -9 -11 -9 -17 0 -26 10 -9 11 -8 6 8 -6 19 -6 19 5 2 6 -10 9 -24
6 -32 -2 -7 2 -16 10 -19 9 -3 12 -11 8 -18 -5 -8 -2 -9 10 -5 10 4 15 3 11
-3 -3 -5 2 -22 11 -37 15 -27 15 -27 -1 -8 -16 18 -17 18 -11 2 3 -10 6 -21 6
-23 0 -2 8 -4 18 -4 12 0 13 -3 5 -8 -9 -6 -7 -12 7 -22 25 -18 26 -31 3 -24
-10 4 -5 -3 10 -14 20 -14 25 -21 15 -25 -8 -4 -9 -8 -3 -14 6 -4 16 -16 24
-26 12 -16 12 -17 -5 -11 -14 4 -13 1 6 -15 16 -13 20 -21 11 -21 -11 0 -10
-4 5 -16 10 -8 13 -13 7 -9 -7 3 -13 1 -13 -4 0 -6 7 -11 16 -11 13 0 14 -3 4
-15 -10 -12 -9 -16 4 -21 9 -3 13 -10 10 -15 -3 -5 3 -9 13 -9 10 0 14 -4 8
-8 -14 -10 -17 -32 -4 -32 5 0 7 -5 4 -10 -4 -6 -3 -10 2 -9 20 4 24 -2 12
-18 -10 -11 -10 -14 -1 -9 12 7 15 0 15 -37 0 -13 5 -17 18 -14 15 4 17 2 9
-13 -13 -25 -13 -33 2 -24 8 5 9 2 5 -9 -4 -12 -1 -17 11 -17 15 0 15 -2 2
-10 -13 -8 -12 -10 3 -10 10 0 15 -4 12 -10 -3 -5 -1 -10 4 -10 6 0 11 -9 11
-20 0 -12 10 -24 23 -30 12 -5 16 -9 10 -9 -7 -1 -13 -5 -13 -10 0 -5 9 -7 20
-4 12 3 20 0 20 -6 0 -7 -5 -9 -12 -5 -7 4 -8 3 -4 -5 4 -6 11 -9 16 -6 5 3
15 -1 23 -9 8 -8 18 -12 23 -8 5 4 3 0 -3 -8 -10 -13 -8 -16 7 -16 10 0 16 5
14 11 -3 5 4 -1 15 -14 13 -14 21 -18 21 -10 1 8 7 3 16 -11 l15 -25 -6 25 -6
25 15 -25 c10 -15 15 -19 16 -10 0 12 2 12 9 2 4 -8 11 -13 15 -13 20 3 26 0
20 -11 -5 -8 0 -7 11 2 11 9 16 10 11 3 -4 -7 -3 -13 1 -13 5 0 15 6 22 13 11
10 12 9 6 -2 -6 -11 -4 -13 9 -8 10 4 19 1 23 -8 4 -12 8 -13 20 -3 11 9 16 9
24 -3 8 -12 10 -12 18 0 7 11 13 12 23 3 11 -9 17 -9 26 0 7 7 12 8 12 2 0
-15 29 -11 66 8 19 9 37 12 45 7 9 -5 22 0 38 14 22 20 23 20 17 3 -6 -17 -5
-17 11 -5 10 8 24 21 31 29 12 13 13 13 7 0 -4 -8 3 -5 14 8 12 14 25 20 32
16 9 -5 10 -2 6 9 -4 12 -2 14 10 10 12 -5 14 -3 8 7 -6 10 -4 12 8 7 10 -4
16 -2 14 6 -1 7 4 11 12 9 9 -2 11 3 7 14 -6 15 -4 15 11 3 11 -9 14 -10 9 -1
-4 7 -1 15 8 18 9 3 14 10 11 14 -3 4 5 10 16 13 15 4 20 11 15 23 -5 14 -4
15 9 4 11 -9 15 -9 15 -1 0 7 4 10 9 7 5 -4 12 0 14 6 4 8 6 7 6 -4 1 -9 6
-20 13 -24 7 -4 8 -3 4 4 -5 8 -1 10 9 6 9 -4 14 -13 11 -21 -4 -10 -1 -11 14
-3 13 7 21 7 26 -2 5 -7 3 -8 -6 -3 -9 5 -11 4 -6 -4 6 -9 11 -9 21 -1 15 13
30 -3 19 -21 -4 -7 1 -7 16 1 21 11 22 10 16 -6 -7 -17 -6 -17 14 1 26 23 26
5 0 -26 -14 -17 -19 -20 -20 -9 0 13 -1 13 -10 0 -5 -8 -10 -10 -10 -3 0 6 -8
10 -17 8 -10 -1 -27 5 -37 14 -18 15 -19 15 -13 -2 4 -11 3 -16 -3 -12 -6 3
-10 14 -11 23 0 10 -3 12 -5 5 -3 -7 -12 -9 -20 -6 -7 3 -12 8 -9 12 2 4 -2 8
-10 8 -8 0 -11 -5 -8 -10 4 -6 -1 -8 -11 -4 -14 5 -17 3 -12 -8 3 -8 2 -14 -2
-14 -22 4 -33 -4 -47 -33 -12 -26 -14 -28 -10 -8 5 24 4 24 -8 -2 -11 -23 -15
-26 -26 -15 -9 7 -11 7 -8 1 10 -18 -28 -59 -55 -59 -12 0 -23 -5 -23 -12 0
-6 -4 -15 -9 -20 -5 -5 -6 -3 -2 5 5 8 0 12 -12 12 -11 0 -22 -7 -25 -15 -4
-8 -15 -12 -27 -10 -17 3 -20 1 -15 -13 5 -14 4 -15 -6 -4 -14 13 -33 17 -25
4 3 -5 -1 -9 -9 -9 -8 0 -11 5 -8 10 4 6 1 7 -8 1 -8 -4 -20 -9 -28 -11 -8 -1
-18 -8 -22 -15 -6 -9 -9 -8 -9 7 0 15 -2 17 -9 6 -7 -11 -9 -11 -14 0 -4 11
-6 11 -6 1 -1 -10 -6 -10 -21 -2 -15 8 -20 8 -20 -2 0 -9 -3 -9 -10 2 -8 13
-10 12 -10 -3 0 -16 -2 -16 -14 -4 -8 8 -31 13 -55 12 -31 -1 -38 1 -30 11 8
9 5 11 -12 7 -17 -5 -20 -3 -14 8 7 12 6 12 -7 1 -13 -10 -16 -9 -21 8 -5 18
-8 20 -26 9 -17 -11 -22 -10 -38 7 -10 11 -14 14 -9 7 12 -18 1 -16 -19 3 -8
9 -27 17 -40 18 -14 0 -25 4 -25 7 0 4 -6 9 -14 12 -10 4 -14 0 -11 -14 2 -10
-2 -19 -8 -20 -7 0 -3 -4 8 -9 11 -5 15 -9 8 -9 -6 -1 -9 -10 -6 -21 3 -11 9
-17 14 -14 13 7 7 -19 -6 -28 -6 -5 -3 -8 7 -8 9 0 20 -5 24 -12 4 -7 3 -8 -4
-4 -18 11 -14 -20 4 -35 8 -7 13 -21 11 -31 -3 -10 -1 -18 5 -18 6 0 8 -9 5
-21 -4 -16 -2 -19 11 -14 9 3 13 3 10 -1 -4 -4 -3 -15 2 -25 7 -12 6 -19 -3
-22 -7 -3 -5 -6 5 -6 11 -1 15 -6 12 -16 -4 -8 -1 -15 5 -15 6 0 8 -7 4 -17
-5 -12 -2 -15 9 -10 12 4 15 0 11 -16 -4 -18 -3 -19 6 -7 9 13 11 12 11 -4 0
-20 0 -20 16 0 8 10 13 14 10 8 -3 -7 1 -14 9 -17 10 -4 12 -1 8 10 -5 12 -2
15 10 10 9 -3 17 -2 17 3 0 5 7 7 15 4 8 -4 15 -1 15 5 0 6 13 11 28 11 15 0
33 5 40 12 9 9 12 9 13 -3 0 -7 4 -4 9 8 6 15 16 21 29 18 11 -2 23 0 26 5 3
5 13 6 22 3 12 -5 15 -2 10 10 -4 11 -2 14 8 11 23 -9 27 -36 8 -53 -16 -15
-16 -15 -4 2 17 21 8 22 -13 1 -9 -8 -16 -11 -16 -5 0 6 -5 11 -11 11 -5 0 -7
-4 -4 -10 3 -5 1 -10 -5 -10 -6 0 -8 -5 -4 -12 5 -9 2 -9 -9 1 -15 12 -21 9
-19 -10 1 -3 -15 -5 -34 -4 -27 2 -34 -1 -30 -11 7 -19 1 -18 -20 3 -16 16
-16 16 -9 -6 4 -13 3 -21 -1 -18 -13 7 -56 -11 -50 -22 3 -5 -2 -8 -12 -7 -9
0 -16 -5 -14 -12 1 -6 -3 -11 -9 -10 -6 2 -14 -3 -17 -11 -3 -9 0 -11 9 -7 8
4 6 1 -3 -7 -10 -8 -15 -17 -11 -20 3 -4 1 -7 -5 -7 -7 0 -12 -5 -12 -10 0 -7
8 -7 22 1 l22 12 -18 -28 c-10 -15 -13 -24 -7 -21 6 4 11 2 11 -4 0 -6 5 -8
12 -4 8 5 9 2 5 -9 -6 -16 4 -21 40 -20 7 1 11 -2 9 -6 -3 -4 5 -13 17 -21 19
-12 21 -11 9 2 -10 13 -8 15 14 10 21 -4 25 -2 19 9 -7 12 -6 12 7 1 13 -10
17 -10 21 0 4 10 6 10 6 1 1 -7 6 -13 12 -13 5 0 7 5 3 12 -4 6 -3 8 4 4 5 -3
13 0 15 6 4 10 6 10 6 0 1 -7 5 -11 9 -8 5 3 9 -1 9 -9 0 -8 -5 -11 -10 -8 -6
4 -8 -1 -4 -11 4 -9 3 -15 -1 -12 -5 3 -28 -6 -52 -20 -44 -25 -44 -25 -25 -2
15 17 16 19 3 9 -10 -7 -24 -11 -33 -7 -9 3 -19 -3 -25 -15 -6 -11 -19 -18
-28 -17 -10 2 -16 -3 -14 -10 2 -10 -2 -10 -17 -2 -26 14 -31 13 -31 -6 0 -8
-4 -12 -10 -9 -5 3 -10 2 -10 -4 0 -5 -11 -8 -25 -6 -14 1 -25 -2 -25 -7 0
-10 -46 -31 -74 -34 -10 -1 -22 -7 -26 -14 -6 -10 -9 -9 -13 1 -4 10 -6 9 -6
-3 -1 -9 -5 -19 -10 -22 -5 -4 -7 4 -5 16 l5 23 -12 -23 c-7 -13 -18 -21 -24
-18 -6 2 -17 -4 -23 -15 -13 -20 -47 -15 -35 5 3 6 2 7 -3 3 -5 -5 -9 -12 -9
-15 -1 -18 -17 -31 -32 -25 -12 5 -14 3 -9 -8 4 -8 0 -5 -10 6 -14 17 -16 17
-11 3 4 -12 1 -18 -8 -19 -32 -3 -36 -4 -44 -17 -5 -8 -11 -13 -15 -13 -24 3
-30 0 -16 -10 12 -9 11 -10 -7 -6 -12 3 -27 -1 -34 -9 -6 -8 -16 -11 -22 -7
-6 4 -8 0 -4 -10 5 -12 0 -14 -20 -11 -21 4 -24 2 -19 -13 4 -9 4 -14 0 -10
-4 4 -14 1 -22 -6 -13 -10 -14 -9 -7 3 8 13 6 13 -8 2 -9 -8 -21 -11 -26 -7
-7 4 -8 -1 -4 -11 4 -12 3 -15 -5 -10 -8 4 -12 0 -12 -10 0 -16 -1 -16 -16 2
-8 10 -13 13 -9 7 3 -7 2 -13 -4 -13 -6 0 -22 -12 -37 -27 -15 -16 -23 -22
-20 -16 5 9 2 11 -8 7 -9 -3 -13 -11 -9 -17 4 -6 -2 -8 -15 -5 -19 5 -20 4
-11 -14 7 -13 7 -18 1 -14 -6 3 -14 2 -17 -4 -5 -8 -12 -7 -23 2 -12 10 -14
10 -8 1 4 -8 1 -13 -9 -13 -9 0 -13 -4 -10 -10 4 -6 -1 -7 -11 -3 -13 5 -16 3
-11 -9 4 -12 0 -15 -18 -13 -13 1 -26 -4 -29 -11 -3 -9 1 -11 12 -8 14 5 14 4
-1 -6 -13 -9 -22 -9 -32 0 -11 9 -13 6 -11 -14 2 -18 -1 -23 -12 -19 -8 4 -23
-4 -34 -18 -11 -13 -17 -18 -13 -12 4 8 1 11 -9 7 -9 -3 -14 -11 -13 -17 1 -7
-6 -11 -15 -11 -10 1 -15 -2 -12 -7 3 -5 -7 -14 -21 -19 -17 -6 -24 -14 -19
-22 6 -10 4 -10 -8 0 -13 11 -16 10 -14 -5 0 -12 -5 -17 -16 -15 -10 1 -27
-11 -40 -28 -12 -17 -28 -28 -36 -25 -7 2 -10 0 -7 -5 3 -6 1 -10 -5 -10 -6 0
-8 -5 -4 -12 5 -8 2 -9 -10 -5 -10 4 -15 3 -11 -3 3 -6 1 -10 -5 -10 -6 0 -8
-5 -4 -12 5 -8 0 -7 -11 2 -10 8 -16 10 -12 4 8 -14 -16 -37 -28 -26 -5 4 -5
2 -2 -4 4 -7 0 -15 -9 -18 -8 -3 -12 -11 -8 -17 4 -8 3 -9 -4 -5 -7 4 -12 2
-12 -3 0 -6 -7 -11 -15 -11 -8 0 -15 -5 -15 -11 0 -5 5 -7 12 -3 7 4 8 3 4 -4
-4 -6 -13 -9 -21 -5 -10 3 -15 -1 -15 -12 0 -10 -5 -15 -14 -12 -8 3 -18 -5
-25 -19 -6 -13 -16 -24 -22 -24 -6 0 -8 -7 -5 -16 5 -14 4 -15 -9 -4 -11 9
-15 9 -15 1 0 -7 -5 -9 -12 -5 -6 4 -8 3 -4 -4 3 -6 2 -13 -4 -17 -6 -4 -7
-11 -4 -17 5 -7 2 -8 -5 -4 -13 9 -43 -23 -34 -37 2 -4 1 -7 -4 -6 -23 4 -32
-2 -26 -18 6 -15 4 -16 -9 -5 -13 10 -18 10 -24 1 -5 -8 -3 -9 6 -4 8 5 11 3
8 -6 -6 -19 -58 -31 -58 -13 0 8 -7 14 -16 14 -9 0 -12 5 -8 13 6 9 4 9 -8 -1
-14 -11 -17 -10 -23 6 -6 20 -48 37 -65 27 -6 -4 -7 1 -3 11 5 14 2 16 -16 11
-19 -5 -20 -3 -9 10 12 15 11 15 -9 4 -19 -10 -23 -9 -23 4 0 8 -5 15 -11 15
-5 0 -7 -5 -3 -12 5 -7 3 -8 -7 -2 -15 9 -39 15 -39 8 0 -11 35 -42 42 -38 4
3 8 0 8 -6 0 -7 -7 -10 -15 -6 -22 8 -18 -3 7 -24 19 -15 21 -21 10 -32 -11
-11 -12 -10 -6 5 5 13 2 16 -12 10 -12 -4 -15 -3 -10 5 4 7 1 12 -9 12 -9 0
-13 5 -10 10 3 6 -2 10 -12 10 -15 0 -16 2 -3 10 12 8 10 10 -10 10 -20 0 -22
2 -10 10 13 8 12 10 -3 10 -11 0 -15 4 -11 12 4 6 3 8 -3 5 -11 -7 -47 27 -49
46 -3 34 -5 38 -14 32 -10 -6 -14 7 -11 34 2 7 -2 10 -8 6 -6 -3 -11 1 -11 9
0 28 -1 31 -18 49 -15 16 -15 17 0 12 20 -8 18 19 -2 38 -11 9 -11 8 0 -8 14
-19 14 -19 -3 -6 -18 14 -18 16 5 34 13 10 18 16 11 13 -6 -4 -14 -2 -18 4 -3
5 -1 10 5 10 8 0 8 6 0 19 -8 16 -6 22 7 30 12 7 14 10 4 11 -11 0 -11 3 -1
15 7 8 9 15 5 15 -4 0 -2 6 4 14 16 19 3 25 -35 17 -4 0 0 -9 7 -18 7 -10 10
-15 5 -11 -15 13 -45 -11 -41 -32 2 -11 -1 -19 -8 -17 -7 1 -11 -4 -9 -12 1
-7 -2 -19 -9 -27 -6 -7 -7 -19 -3 -26 5 -8 1 -8 -11 2 -17 14 -18 14 -7 -7 9
-16 9 -24 1 -29 -8 -4 -7 -9 2 -15 9 -5 10 -9 3 -9 -7 0 -15 -7 -18 -16 -3 -8
-2 -12 4 -9 16 10 12 -7 -7 -27 -14 -15 -14 -19 -3 -16 9 2 14 -4 14 -14 -1
-10 2 -18 8 -18 5 0 7 -4 3 -9 -3 -5 -1 -12 5 -16 6 -4 7 -11 4 -17 -4 -6 0
-14 7 -19 12 -7 11 -9 -1 -9 -13 0 -13 -1 0 -10 13 -9 13 -11 0 -20 -8 -5 -10
-10 -5 -10 6 0 16 5 22 11 7 7 10 3 8 -16 -3 -19 3 -29 20 -37 14 -6 21 -16
18 -24 -3 -8 0 -14 7 -14 6 0 8 -5 4 -12 -6 -10 -4 -10 8 0 14 11 16 10 11 -9
-4 -15 -3 -20 5 -15 7 4 12 1 12 -8 0 -9 7 -16 15 -16 9 0 19 -8 22 -17 4 -10
15 -25 25 -34 10 -9 18 -22 18 -28 0 -7 3 -10 8 -8 4 3 16 -7 27 -22 15 -21
16 -23 2 -12 -15 12 -17 12 -12 -2 4 -8 15 -17 26 -20 13 -4 17 -10 12 -23 -5
-13 -3 -15 7 -9 10 6 12 4 6 -10 -5 -14 -4 -16 7 -7 11 9 13 7 12 -10 -1 -12
-7 -24 -14 -26 -9 -3 -9 -8 1 -20 12 -14 10 -14 -12 -2 -21 11 -23 11 -14 -1
9 -11 9 -17 -2 -27 -7 -7 -17 -13 -21 -15 -5 -1 -7 -5 -6 -9 2 -5 -1 -8 -7 -8
-5 0 -6 -7 -3 -17 4 -10 2 -14 -4 -10 -6 4 -14 0 -17 -9 -3 -8 -11 -12 -17 -8
-8 4 -9 3 -5 -5 4 -6 13 -9 19 -5 7 3 1 -4 -13 -15 -14 -11 -21 -21 -16 -21
12 0 -56 -75 -68 -75 -6 0 -10 -9 -8 -19 2 -10 -1 -16 -6 -12 -8 5 -10 0 -14
-43 -1 -11 -8 -17 -15 -14 -7 3 -13 -2 -13 -12 0 -10 -5 -13 -12 -9 -6 4 -8 3
-5 -4 9 -14 -3 -43 -14 -36 -5 3 -9 -2 -9 -10 0 -9 -6 -16 -12 -16 -9 0 -8 -4
2 -10 12 -8 10 -10 -10 -10 -14 0 -20 -4 -15 -8 16 -12 16 -30 -1 -36 -12 -5
-15 -2 -10 9 3 9 2 13 -4 10 -6 -3 -7 -17 -4 -31 5 -19 2 -24 -12 -25 -11 0
-14 -3 -7 -6 9 -3 7 -11 -7 -25 -11 -12 -17 -24 -15 -28 3 -5 -3 -11 -12 -14
-15 -6 -15 -8 -3 -16 13 -8 12 -10 -2 -10 -9 0 -20 -5 -24 -12 -4 -7 -3 -8 4
-4 16 10 15 -2 -2 -19 -7 -8 -17 -11 -22 -7 -5 4 -2 -2 6 -12 14 -18 13 -19
-3 -13 -11 4 -16 3 -12 -4 4 -5 1 -17 -7 -26 -9 -12 -9 -15 -1 -9 9 5 11 2 7
-8 -3 -9 -11 -14 -17 -13 -7 1 -11 -8 -9 -23 2 -18 0 -21 -6 -12 -7 11 -10 10
-16 -3 -8 -23 -8 -27 4 -20 6 3 7 -1 4 -9 -3 -9 -10 -16 -16 -16 -5 0 -6 -4
-3 -10 3 -5 1 -10 -4 -10 -6 0 -11 -7 -11 -15 0 -8 -6 -15 -12 -15 -9 0 -8 -4
2 -10 8 -5 10 -10 5 -10 -18 0 -37 -40 -26 -54 13 -16 2 -29 -14 -16 -8 7 -11
1 -9 -20 1 -17 -2 -33 -7 -36 -6 -3 -7 -15 -3 -26 5 -17 3 -20 -14 -16 -17 5
-20 2 -16 -18 3 -15 0 -24 -8 -24 -9 0 -8 -3 2 -10 13 -9 13 -10 0 -11 -8 -1
-19 -1 -23 0 -4 1 -3 -8 4 -20 10 -19 9 -21 -5 -16 -12 5 -15 3 -9 -5 4 -7 8
-21 8 -30 1 -15 -1 -15 -13 -5 -13 10 -14 9 -2 -13 12 -23 12 -24 -4 -11 -15
12 -17 12 -14 0 2 -8 7 -17 11 -20 5 -4 -2 -17 -15 -29 -12 -13 -17 -19 -9
-15 9 5 12 3 9 -6 -3 -8 -11 -13 -17 -11 -7 1 -10 -2 -6 -8 4 -6 1 -18 -7 -27
-7 -9 -8 -14 -2 -10 7 4 14 0 17 -7 4 -11 0 -14 -16 -11 -21 4 -21 3 -4 -9 12
-9 14 -15 6 -18 -6 -2 -12 -14 -13 -26 0 -13 -5 -26 -11 -30 -5 -4 -10 -18
-11 -32 0 -14 -4 -24 -10 -23 -5 1 -10 -9 -10 -22 -1 -13 3 -22 10 -21 6 2 8
1 4 -1 -5 -3 -8 -11 -8 -19 0 -9 -4 -13 -8 -10 -5 3 -9 -1 -9 -9 0 -8 5 -11
11 -8 6 4 5 0 -2 -9 -7 -9 -14 -35 -15 -57 -1 -21 -5 -37 -9 -35 -5 3 -5 10
-2 16 4 6 3 9 -2 5 -5 -3 -9 -30 -9 -61 1 -39 -2 -52 -10 -46 -14 11 -14 -18
0 -39 6 -11 4 -13 -10 -7 -14 5 -16 4 -7 -7 9 -10 8 -17 -1 -27 -9 -10 -9 -11
1 -6 6 4 12 2 12 -3 0 -6 -5 -11 -11 -11 -6 0 -8 -9 -4 -20 4 -13 2 -20 -6
-20 -7 0 -4 -7 7 -15 14 -12 15 -14 2 -9 -13 4 -15 1 -11 -17 5 -17 3 -20 -8
-14 -11 6 -11 5 -2 -5 9 -9 9 -19 2 -33 -9 -15 -8 -18 3 -12 10 6 11 5 1 -6
-16 -16 -17 -33 -2 -23 8 4 8 0 0 -15 -7 -11 -17 -21 -24 -21 -9 0 -9 -2 0 -8
9 -6 12 -47 3 -47 -1 0 -3 -10 -4 -23 -2 -12 2 -22 8 -22 6 0 4 -5 -4 -10 -13
-9 -13 -10 0 -10 12 -1 11 -3 -3 -11 -14 -8 -16 -14 -6 -25 8 -10 8 -14 0 -14
-6 0 -11 -4 -11 -10 0 -5 7 -7 16 -3 14 5 14 3 2 -16 -11 -18 -11 -23 2 -31
11 -7 11 -10 2 -10 -7 0 -10 -4 -7 -10 3 -5 1 -10 -5 -10 -6 0 -8 -5 -5 -10 4
-6 11 -7 17 -4 7 5 8 2 2 -7 -5 -8 -9 -24 -9 -37 0 -13 -7 -27 -15 -32 -10 -7
-11 -10 -2 -10 6 0 12 -7 12 -16 0 -8 -4 -12 -10 -9 -7 4 -7 -2 0 -19 5 -15 6
-28 0 -31 -6 -3 -6 -15 0 -30 5 -14 7 -25 4 -25 -4 0 0 -8 7 -17 12 -14 12
-16 0 -8 -11 6 -13 4 -8 -7 3 -9 1 -20 -5 -26 -6 -6 -6 -12 3 -17 7 -5 10 -4
6 2 -3 5 1 10 10 10 13 0 12 -3 -4 -17 -19 -15 -19 -18 -4 -29 9 -6 11 -9 5
-7 -7 4 -11 -4 -11 -19 0 -13 2 -23 6 -22 3 1 6 -2 6 -8 0 -5 -5 -9 -12 -9 -6
1 -9 -5 -6 -12 3 -8 8 -12 12 -9 14 8 6 -40 -9 -53 -8 -7 -10 -12 -5 -11 30 4
36 -1 20 -17 -15 -15 -15 -18 0 -34 12 -13 13 -20 5 -25 -9 -6 -9 -10 1 -16
12 -7 12 -9 0 -9 -11 0 -11 -3 0 -17 12 -15 12 -16 -1 -8 -13 7 -13 6 -2 -7
10 -13 10 -17 0 -21 -8 -3 -5 -6 7 -7 19 -1 19 -1 2 -11 -17 -10 -16 -12 3
-39 19 -27 20 -29 3 -39 -17 -10 -17 -10 -1 -11 14 0 16 -4 8 -25 -8 -20 -5
-27 13 -41 12 -9 15 -14 7 -11 -20 6 -20 -41 -1 -53 11 -6 11 -9 0 -14 -11 -5
-11 -7 -1 -12 6 -3 12 -10 12 -15 0 -6 -6 -7 -12 -3 -7 4 -4 -3 7 -16 11 -13
15 -20 8 -17 -16 10 -9 -43 8 -54 7 -4 10 -11 6 -15 -4 -4 -2 -13 5 -21 9 -11
7 -12 -7 -7 -13 5 -16 4 -11 -4 4 -7 15 -12 24 -12 13 0 13 -2 -4 -14 -18 -14
-18 -15 -1 -22 10 -3 16 -13 13 -20 -3 -7 -1 -16 4 -19 5 -3 7 -12 3 -20 -3
-9 0 -21 6 -28 6 -8 9 -23 6 -35 -2 -13 3 -26 13 -32 15 -8 15 -9 -3 -10 -18
-1 -17 -2 5 -15 14 -8 20 -14 14 -15 -6 0 -11 -7 -11 -15 0 -10 4 -12 12 -5 8
7 11 1 9 -20 -1 -17 2 -30 7 -30 4 0 6 -7 3 -15 -4 -9 0 -15 7 -15 11 0 11 -2
0 -9 -12 -7 -12 -13 -3 -24 7 -7 8 -18 4 -23 -4 -4 0 -3 8 3 13 10 16 8 16 -7
0 -10 -4 -17 -7 -14 -4 2 -1 -9 7 -26 9 -16 19 -32 24 -35 5 -3 5 -17 -1 -32
-9 -24 -8 -25 7 -12 16 13 16 12 5 -8 -10 -20 -9 -23 6 -24 10 0 13 -3 6 -6
-10 -3 -9 -8 2 -20 8 -8 16 -23 16 -34 3 -37 5 -44 15 -42 7 1 9 -9 6 -24 -4
-21 -2 -25 12 -20 9 4 16 2 16 -3 0 -6 -7 -10 -16 -10 -8 0 -12 -5 -9 -10 4
-6 10 -8 15 -5 5 3 12 0 16 -6 4 -8 3 -9 -4 -5 -19 11 -14 -5 6 -21 9 -8 11
-12 5 -8 -9 4 -11 1 -7 -9 3 -9 11 -13 18 -9 6 4 4 -1 -4 -12 -14 -17 -13 -17
10 -11 14 4 20 4 14 -1 -11 -9 -14 -54 -3 -47 10 6 20 -26 12 -39 -3 -7 -3 -9
2 -5 13 13 37 -13 25 -27 -7 -8 -4 -17 10 -30 11 -10 20 -26 20 -36 0 -9 4
-19 9 -21 5 -1 11 -10 13 -18 2 -8 6 -18 11 -21 13 -10 17 -49 4 -46 -7 1 -11
-7 -9 -18 2 -17 0 -16 -12 5 -13 21 -15 22 -16 6 0 -11 -3 -16 -7 -13 -3 4
-14 0 -24 -9 -13 -12 -19 -12 -25 -3 -4 7 -3 10 4 5 6 -3 13 -2 16 3 5 7 -22
8 -31 1 -2 -2 -7 -3 -12 -4 -5 0 -13 -5 -18 -10 -5 -5 -2 -6 6 -1 10 6 12 4 6
-4 -5 -9 -11 -9 -17 -3 -12 12 -41 4 -33 -9 3 -4 -4 -6 -16 -4 -13 3 -29 -1
-38 -8 -12 -9 -13 -9 -7 0 5 9 2 11 -8 7 -9 -3 -13 -11 -9 -18 4 -6 -2 -4 -12
4 -11 9 -16 10 -11 3 4 -7 4 -13 -1 -14 -4 0 -23 -2 -42 -4 -19 -2 -37 -9 -41
-15 -3 -6 -16 -12 -29 -15 -12 -2 -19 0 -16 6 4 5 11 6 17 3 7 -5 8 -2 3 6 -6
10 -12 9 -24 -6 -9 -11 -25 -19 -36 -19 -11 0 -31 -8 -44 -17 -27 -20 -46 -24
-35 -6 4 7 3 8 -5 4 -6 -4 -9 -11 -6 -16 3 -5 -7 -10 -22 -12 -18 -2 -27 -8
-25 -17 3 -12 0 -12 -12 -2 -13 11 -17 10 -22 -3 -3 -9 -10 -14 -14 -11 -5 3
-11 1 -15 -5 -4 -7 -13 -6 -27 1 -15 8 -19 8 -14 0 4 -6 2 -11 -4 -11 -13 0
-36 -21 -37 -33 -1 -5 -5 -12 -9 -15 -4 -4 -4 -2 0 5 3 6 2 14 -4 18 -5 3 -10
1 -10 -5 0 -6 -5 -8 -12 -4 -6 4 -8 3 -4 -4 3 -6 2 -13 -4 -17 -5 -3 -10 0
-10 7 0 7 -6 3 -14 -8 -9 -12 -24 -20 -38 -19 -24 2 -61 -22 -53 -35 2 -3 -6
-6 -17 -5 -24 2 -60 -24 -52 -37 3 -4 -3 -5 -12 -1 -13 5 -15 3 -9 -8 8 -12 6
-12 -8 0 -15 12 -17 11 -17 -3 0 -11 -5 -14 -12 -10 -8 5 -9 2 -5 -10 5 -14 3
-15 -13 -6 -15 8 -22 5 -38 -15 -14 -17 -22 -21 -25 -13 -3 8 -6 5 -6 -6 -1
-11 -6 -16 -15 -13 -8 3 -17 -1 -20 -10 -4 -9 -13 -13 -22 -9 -15 6 -15 4 -3
-11 9 -11 10 -14 2 -9 -8 4 -13 2 -13 -6 0 -10 -2 -10 -9 1 -7 11 -10 9 -16
-8 -3 -12 -12 -20 -18 -19 -17 3 -57 -24 -57 -39 0 -7 -7 -10 -17 -6 -11 4
-14 3 -9 -5 6 -11 -5 -17 -27 -13 -4 1 -12 -10 -17 -23 -5 -13 -15 -28 -22
-32 -9 -5 -8 -2 2 12 14 18 14 18 -3 5 -10 -8 -16 -20 -13 -28 5 -11 1 -11
-17 -2 -21 12 -21 11 -7 -6 10 -12 10 -16 2 -11 -8 5 -20 -2 -33 -18 -11 -15
-24 -24 -28 -22 -10 7 -41 -31 -33 -40 4 -4 -1 -4 -10 -1 -14 5 -18 1 -18 -16
0 -18 -2 -19 -10 -7 -9 14 -15 7 -11 -14 1 -5 -5 -6 -13 -3 -9 4 -13 0 -12
-11 2 -12 16 -19 44 -23 23 -3 42 -1 42 3 0 5 5 6 11 2 15 -9 89 -12 83 -3 -2
4 5 5 16 2 11 -3 18 -9 15 -13 -7 -11 22 -6 32 5 4 4 2 5 -6 0 -10 -6 -12 -4
-7 4 6 8 12 9 20 2 7 -6 16 -8 19 -4 4 3 7 2 7 -3 0 -5 11 -10 25 -10 16 -1
22 2 18 10 -4 6 1 5 10 -3 10 -8 20 -11 24 -8 3 4 14 2 24 -3 13 -8 20 -6 27
6 8 14 10 14 15 1 4 -10 13 -13 26 -10 12 3 21 1 21 -5 0 -5 7 -13 16 -16 8
-3 12 -2 9 3 -3 5 -1 12 5 16 5 3 10 -2 10 -12 0 -15 2 -16 10 -3 6 10 10 11
10 3 0 -7 5 -13 11 -13 5 0 7 4 4 10 -3 6 1 7 9 4 9 -3 13 -11 9 -18 -4 -6 1
-5 10 3 13 11 17 11 17 1 0 -8 3 -10 6 -7 4 3 16 2 27 -4 15 -9 18 -8 12 2 -6
9 -3 11 9 6 10 -4 20 -7 22 -7 3 0 3 -4 0 -8 -3 -5 1 -9 9 -9 8 0 12 4 9 9 -3
4 0 8 5 8 6 0 11 -4 11 -9 0 -5 11 -11 25 -13 14 -3 25 -1 25 5 0 6 6 4 13 -5
14 -19 75 -29 81 -14 2 6 5 3 5 -6 1 -10 7 -15 14 -12 7 2 33 -4 57 -15 24
-10 50 -17 58 -13 11 4 13 2 7 -9 -8 -12 -6 -12 8 0 15 12 17 11 17 -8 0 -13
4 -19 11 -16 6 4 5 -2 -3 -14 -7 -12 -17 -21 -23 -21 -5 0 -4 -4 4 -9 13 -8
13 -12 0 -27 -8 -9 -13 -19 -11 -21 6 -9 1 -23 -8 -18 -5 3 -10 1 -10 -4 0 -6
5 -11 11 -11 8 0 8 -4 0 -13 -8 -10 -7 -17 2 -26 9 -10 8 -11 -6 -5 -13 5 -16
2 -10 -12 4 -10 2 -15 -3 -11 -12 7 -12 -33 -1 -50 4 -7 -2 -18 -15 -27 -15
-11 -18 -16 -8 -16 9 0 11 -3 5 -8 -6 -4 -10 -14 -10 -22 1 -8 -5 -26 -13 -39
-8 -13 -9 -20 -3 -17 6 4 11 2 11 -3 0 -6 -4 -11 -10 -11 -5 0 -7 -7 -4 -15 4
-9 1 -15 -7 -15 -8 0 -6 -5 5 -13 17 -12 17 -14 -1 -28 -16 -13 -17 -13 -4 4
7 9 9 17 3 17 -14 0 -23 -28 -11 -36 6 -3 6 -10 1 -17 -6 -7 -9 -23 -8 -37 2
-14 -4 -36 -12 -49 -8 -13 -9 -20 -3 -17 6 4 11 3 11 -3 0 -5 -5 -13 -10 -16
-8 -5 -7 -12 2 -23 10 -12 10 -14 1 -8 -16 9 -17 -16 -2 -31 8 -8 8 -13 0 -17
-6 -4 -11 -25 -11 -47 0 -24 -5 -39 -12 -39 -10 0 -9 -3 1 -9 9 -6 10 -11 2
-15 -7 -5 -7 -15 0 -33 9 -24 8 -25 -7 -12 -16 13 -16 12 -4 -11 10 -18 10
-25 1 -28 -9 -3 -7 -10 6 -25 10 -11 13 -17 7 -14 -15 9 -27 -20 -12 -29 8 -5
7 -9 -3 -13 -11 -5 -10 -11 8 -30 22 -23 22 -23 18 -2 -4 23 5 27 22 10 9 -9
10 -6 6 10 -4 17 -2 20 11 15 10 -4 16 -1 16 9 0 9 5 19 12 23 7 5 9 2 4 -7
-4 -8 1 -4 10 8 9 13 23 23 31 23 8 0 12 4 9 9 -3 5 4 11 15 14 15 4 20 11 16
22 -5 13 -3 14 13 5 16 -8 18 -7 15 8 -2 11 3 19 10 19 8 0 12 -5 9 -11 -3 -6
0 -4 8 4 7 8 25 21 40 29 15 8 25 18 22 23 -3 4 0 8 6 8 6 0 8 5 4 11 -5 8 -1
8 14 0 18 -10 20 -9 17 10 -4 17 -2 19 10 9 12 -10 15 -9 15 3 0 11 5 14 17
10 12 -5 14 -3 8 7 -6 10 -4 12 10 6 16 -6 16 -4 4 10 -13 16 -12 16 10 4 21
-11 23 -10 18 4 -8 19 4 21 22 3 12 -10 13 -9 7 7 -5 15 -2 18 19 14 21 -4 23
-3 13 9 -6 8 -7 13 -2 12 21 -4 35 2 28 12 -4 8 0 8 15 0 12 -7 20 -8 19 -2
-2 5 0 8 4 7 4 0 15 9 23 22 14 18 20 20 37 11 15 -8 19 -8 14 0 -4 6 -2 11 4
11 6 0 8 6 4 13 -5 9 -4 9 6 0 11 -10 16 -9 27 5 8 9 12 12 9 6 -3 -7 11 -3
32 8 20 10 47 17 60 15 18 -4 20 -2 10 10 -6 8 -7 13 -2 12 25 -4 54 2 49 11
-3 5 -2 10 4 10 5 0 12 -4 16 -10 3 -5 12 -7 20 -3 18 6 20 -18 2 -37 -10 -12
-9 -12 4 -2 18 13 30 6 23 -13 -3 -7 0 -23 6 -35 10 -18 9 -21 -2 -15 -7 3 -4
-1 6 -9 11 -9 16 -16 10 -16 -5 0 -9 -14 -9 -30 -1 -25 2 -29 20 -24 15 4 16
3 6 -4 -7 -5 -11 -14 -7 -20 3 -6 0 -13 -6 -15 -7 -3 -4 -6 7 -6 17 -1 17 -3
5 -11 -11 -7 -11 -10 -2 -10 7 0 11 -4 7 -9 -3 -5 0 -13 7 -17 8 -5 6 -10 -8
-15 -17 -7 -16 -8 6 -9 23 -1 23 -2 5 -10 -15 -6 -16 -9 -4 -9 18 -1 22 -32 5
-43 -7 -5 -5 -8 5 -8 9 0 20 -7 23 -16 10 -26 6 -30 -9 -10 -8 11 -15 15 -15
9 0 -6 7 -16 15 -23 8 -7 12 -17 8 -23 -4 -7 -8 -20 -8 -29 -1 -14 1 -15 12
-6 7 6 16 8 20 4 3 -3 1 -6 -5 -6 -7 0 -12 -5 -12 -11 0 -5 6 -7 13 -3 8 5 8
2 -2 -9 -11 -14 -11 -17 0 -17 10 0 10 -3 1 -12 -8 -8 -7 -17 7 -37 9 -14 17
-41 15 -58 -1 -21 2 -30 9 -26 6 4 8 0 4 -10 -3 -10 -2 -17 3 -17 6 0 10 -4
10 -10 0 -5 -6 -8 -12 -6 -7 1 -10 1 -5 -1 4 -3 4 -10 0 -16 -3 -7 -3 -9 2 -5
4 4 15 2 23 -5 13 -10 15 -9 9 5 -4 12 -2 15 8 11 8 -3 12 -10 9 -17 -3 -6 1
-3 9 7 11 14 16 15 20 5 4 -10 6 -10 6 0 1 6 8 12 17 12 8 0 12 -4 9 -10 -11
-18 4 -11 26 13 20 20 21 20 15 2 -5 -18 -4 -18 6 -4 7 9 21 15 30 13 10 -1
23 5 29 14 8 13 10 14 6 2 -3 -11 2 -16 16 -18 17 -1 19 1 7 8 -13 8 -12 10 3
10 11 0 16 5 12 13 -4 6 1 3 9 -7 9 -11 16 -14 16 -8 0 7 6 12 14 12 8 0 16 3
19 8 2 4 2 2 1 -5 -2 -7 2 -15 8 -19 6 -4 8 -3 5 3 -4 6 0 14 9 17 10 4 13 2
8 -7 -4 -6 2 -4 13 6 23 20 37 23 27 5 -4 -7 5 -2 20 12 15 14 26 20 24 14 -2
-7 0 -12 5 -13 21 -3 28 0 22 9 -3 6 -1 10 4 10 6 0 11 -5 11 -10 0 -7 7 -7
21 0 11 6 30 11 42 10 12 -1 25 -1 30 0 4 1 10 3 15 5 4 1 15 5 25 9 9 5 26 6
37 3 10 -3 25 2 31 10 10 11 14 11 20 1 7 -10 9 -10 9 0 0 7 15 12 41 12 22 0
38 4 35 8 -3 5 1 9 9 9 8 0 12 -4 10 -8 -3 -4 2 -6 11 -5 9 1 21 10 26 20 6
11 14 14 21 8 16 -12 59 -13 52 -1 -4 5 4 5 19 -1 17 -6 27 -6 32 2 5 7 3 8
-6 3 -9 -5 -11 -4 -6 4 6 9 11 9 21 1 10 -8 14 -7 18 7 4 16 5 16 6 -1 1 -20
1 -20 17 0 8 10 13 13 9 7 -7 -15 4 -17 25 -3 9 6 17 5 21 -1 4 -7 12 -5 21 5
9 8 18 13 21 10 3 -3 14 -1 26 5 14 8 22 8 26 1 5 -8 12 -7 22 1 12 10 16 10
24 -2 7 -11 9 -10 9 6 0 17 2 17 10 5 5 -8 10 -10 10 -4 0 7 13 11 33 9 17 -1
40 1 50 7 11 5 17 5 17 -2 0 -5 5 -10 11 -10 5 0 8 4 5 9 -9 14 20 21 33 8 8
-8 11 -8 11 2 0 11 3 11 15 1 9 -7 15 -8 15 -2 0 5 9 8 20 5 13 -3 20 0 20 8
0 12 2 12 9 0 6 -9 11 -10 15 -2 10 15 29 14 21 -1 -4 -7 -1 -6 7 2 8 10 30
15 63 14 28 0 60 5 72 13 19 11 22 11 17 -2 -5 -11 -2 -14 12 -9 11 4 24 11
30 15 6 5 14 6 18 2 4 -4 11 -1 16 7 8 13 10 13 10 -1 0 -9 7 -16 15 -16 8 0
12 4 9 9 -7 11 3 10 28 -3 16 -8 19 -8 13 1 -5 9 -1 10 15 5 19 -6 22 -4 16
11 -6 18 -5 18 9 0 10 -13 15 -15 15 -6 0 9 5 7 15 -6 10 -13 13 -14 10 -3 -4
10 0 16 9 16 8 0 13 -4 10 -9 -3 -4 10 -8 28 -8 25 0 29 -3 18 -10 -8 -5 -10
-10 -5 -10 6 0 17 6 24 13 11 10 12 9 6 -2 -6 -11 -4 -13 8 -8 10 3 17 2 17
-2 0 -5 -6 -11 -12 -14 -7 -3 3 -4 22 -4 25 1 34 -2 32 -12 -3 -12 0 -12 12
-1 13 10 16 10 16 0 0 -9 4 -9 13 -2 14 12 51 -10 39 -24 -4 -4 2 -2 12 6 13
10 17 10 12 3 -5 -9 0 -13 14 -13 13 0 19 4 14 12 -4 7 -3 8 4 4 6 -4 9 -12 6
-20 -3 -7 2 -13 10 -13 8 0 13 4 11 8 -6 9 16 6 33 -4 7 -5 10 -12 7 -17 -3
-5 -1 -12 5 -15 6 -4 9 -1 8 6 -2 6 3 14 11 17 10 3 12 0 7 -14 -6 -15 -5 -17
5 -6 16 15 33 16 23 1 -4 -8 0 -8 15 0 17 10 20 9 15 -4 -5 -11 -2 -13 10 -9
10 4 16 1 16 -7 0 -12 2 -12 9 0 6 9 11 10 15 3 4 -6 14 -8 23 -5 11 5 14 3 8
-6 -6 -10 -3 -11 15 -1 15 8 20 8 16 1 -7 -10 19 -15 77 -14 12 0 16 -5 12
-16 -5 -12 -3 -13 5 -4 9 8 21 8 47 -3 19 -8 32 -10 28 -5 -7 12 5 14 29 5 9
-3 13 -11 9 -18 -4 -6 1 -5 10 3 9 7 17 9 17 3 0 -5 9 -8 20 -5 11 3 20 0 20
-6 0 -6 5 -11 11 -11 5 0 7 5 4 10 -3 6 -1 10 4 10 6 0 11 -5 11 -11 0 -5 6
-7 12 -3 17 10 48 13 43 3 -3 -4 2 -9 10 -13 8 -3 15 0 15 6 0 7 7 3 16 -8 8
-10 13 -13 9 -6 -4 8 2 12 20 12 18 0 24 -4 19 -13 -5 -8 -2 -8 9 2 11 9 17
10 17 2 0 -6 7 -11 16 -11 8 0 12 5 9 10 -3 6 -1 10 4 10 6 0 11 -4 11 -9 0
-5 9 -11 21 -14 16 -4 19 -2 14 11 -5 13 -2 12 15 -3 17 -15 23 -16 29 -6 6 9
11 10 15 2 10 -15 29 -14 20 2 -5 9 -4 9 6 0 7 -6 19 -9 26 -6 8 3 14 0 14 -6
0 -6 5 -11 11 -11 5 0 8 3 6 8 -3 4 10 7 29 8 25 1 34 -4 34 -15 0 -14 1 -14
10 -1 5 8 23 15 39 16 16 0 28 -3 26 -7 -3 -4 8 -9 25 -11 16 -2 27 -1 25 3
-3 4 2 10 11 13 9 4 13 2 8 -5 -5 -8 3 -10 25 -7 18 3 34 1 37 -4 3 -5 15 -1
27 9 11 10 17 13 14 7 -4 -7 0 -15 9 -18 8 -3 13 -2 10 3 -3 5 1 12 10 15 25
9 27 7 13 -11 -13 -15 -12 -15 11 -3 31 17 52 21 44 9 -8 -13 10 -11 24 3 9 9
12 9 12 -2 0 -9 5 -8 16 6 8 10 13 14 10 9 -2 -6 5 -17 17 -25 20 -12 21 -12
8 4 -13 15 -9 16 42 12 45 -3 57 -1 62 12 6 15 8 15 21 -2 14 -20 14 -20 14 0
0 14 2 16 9 5 6 -9 11 -10 15 -2 4 6 12 11 18 11 6 0 5 -7 -3 -17 -9 -11 -4
-10 15 5 21 16 33 19 46 12 13 -7 20 -6 24 5 4 13 9 13 25 3 16 -9 23 -9 37 3
16 13 17 12 11 -5 -6 -15 -5 -17 7 -7 8 6 18 11 22 10 22 -4 35 2 28 12 -4 8
0 8 15 0 18 -10 21 -9 21 6 1 17 1 17 11 0 10 -17 12 -17 30 -2 10 10 25 15
34 12 8 -4 15 -1 15 5 0 9 3 9 11 1 13 -13 42 -6 33 8 -3 5 3 6 12 2 13 -5 15
-3 9 8 -5 8 2 5 14 -5 17 -16 20 -16 16 -4 -4 9 -1 19 6 24 8 5 10 3 4 -5 -5
-9 -1 -12 11 -10 11 2 25 0 31 -4 9 -5 11 -3 7 6 -3 8 0 18 7 23 8 4 10 3 5
-4 -4 -7 -2 -12 3 -12 6 0 11 5 11 11 0 5 5 7 10 4 6 -4 17 -1 25 5 8 7 26 10
40 8 14 -3 28 -1 31 4 3 4 10 6 15 3 5 -4 12 1 15 9 3 9 10 13 15 10 17 -10
50 -13 44 -3 -4 5 -11 6 -17 3 -7 -4 -8 -2 -4 4 4 6 13 9 21 5 10 -3 15 1 15
13 0 16 1 16 14 -2 14 -18 15 -18 22 -1 5 15 9 16 15 5 7 -10 9 -9 9 4 0 12 6
15 22 10 16 -4 19 -2 13 8 -6 10 -4 11 6 4 24 -15 56 -12 55 5 -1 10 7 16 22
15 12 0 22 5 22 12 0 7 4 16 10 19 5 3 7 0 4 -9 -4 -12 0 -14 18 -11 12 3 24
9 26 15 2 5 8 10 13 10 6 0 7 -6 3 -13 -4 -6 2 -4 14 7 19 16 24 17 39 5 9 -8
14 -9 10 -3 -3 6 0 11 8 11 8 0 12 -4 10 -8 -3 -4 2 -9 10 -12 9 -4 12 -1 9 7
-3 8 3 12 18 10 13 -1 27 -3 31 -3 5 -1 5 -5 2 -11 -3 -6 1 -7 9 -4 10 4 16 1
16 -7 0 -9 3 -10 8 -3 10 16 51 24 59 12 4 -7 1 -8 -7 -3 -9 5 -11 4 -6 -4 4
-6 13 -8 19 -4 18 11 58 13 52 2 -7 -11 24 -7 44 5 11 7 13 5 8 -8 -6 -14 -3
-15 13 -6 16 9 20 7 21 -7 0 -16 1 -16 8 2 8 19 8 19 19 0 11 -20 11 -20 12 0
l1 20 9 -20 c5 -11 9 -16 9 -11 1 5 9 2 18 -5 10 -8 14 -9 10 -2 -4 6 -3 14 3
18 5 3 10 1 10 -6 0 -7 3 -9 7 -6 3 4 12 2 20 -4 10 -9 13 -8 13 0 0 7 5 9 10
6 6 -4 8 -11 5 -16 -3 -5 1 -6 9 -3 9 3 13 11 10 16 -4 6 3 5 15 -1 12 -7 26
-9 31 -6 6 3 10 1 10 -4 0 -6 5 -11 11 -11 5 0 8 4 5 8 -3 5 1 9 8 9 8 0 12
-6 9 -14 -4 -9 0 -11 11 -7 9 3 13 11 9 18 -4 6 1 5 10 -3 9 -7 28 -11 41 -9
18 4 23 1 19 -10 -5 -12 -2 -12 17 -2 15 8 20 8 16 1 -4 -6 -2 -11 3 -11 6 0
11 5 11 11 0 5 4 8 10 4 5 -3 7 -13 4 -23 -5 -16 -5 -16 6 0 12 19 44 13 33
-6 -4 -6 1 -5 10 3 13 10 17 10 17 1 0 -10 3 -10 14 -1 11 9 16 9 22 0 5 -8 3
-9 -6 -4 -9 5 -11 4 -6 -4 4 -6 12 -9 17 -5 5 3 16 0 24 -6 12 -10 16 -9 21 4
6 15 8 15 21 -1 8 -10 12 -12 8 -5 -7 14 11 17 20 2 3 -5 12 -10 18 -10 7 0 6
4 -3 10 -12 7 -10 9 7 7 12 0 19 -5 17 -9 -3 -4 8 -8 25 -8 16 0 31 3 34 8 2
4 2 2 1 -5 -2 -6 4 -14 12 -17 10 -4 13 -2 8 7 -4 6 3 3 15 -7 22 -20 22 -20
15 0 -6 16 -5 17 7 7 7 -7 21 -13 32 -13 10 0 16 -4 13 -8 -3 -5 1 -9 9 -9 8
0 12 5 8 10 -3 5 3 7 13 5 11 -2 18 -10 16 -16 -1 -7 2 -12 8 -12 5 0 10 8 10
17 0 15 2 14 16 -3 8 -10 13 -13 9 -7 -4 9 -1 11 9 7 9 -3 13 -10 10 -15 -3
-5 2 -6 10 -3 9 3 13 11 10 18 -3 6 1 3 9 -6 11 -14 16 -15 27 -5 10 9 11 9 6
0 -5 -9 3 -13 29 -13 20 0 46 -5 57 -11 11 -6 18 -7 15 -2 -4 5 0 10 8 10 8 0
12 -4 9 -8 -2 -4 0 -10 6 -14 5 -3 10 -1 10 6 0 8 3 9 13 0 8 -6 17 -8 20 -4
4 3 7 1 7 -7 0 -10 3 -10 14 -1 11 9 16 9 22 0 5 -8 3 -9 -6 -4 -8 5 -11 4 -7
-2 4 -6 20 -9 37 -7 22 3 29 0 24 -9 -5 -9 -4 -9 7 1 17 16 32 16 23 0 -5 -10
-4 -10 6 -1 16 14 63 -4 53 -21 -4 -6 1 -5 10 3 13 10 17 10 17 1 0 -9 4 -9
17 1 10 8 14 9 10 2 -4 -6 -3 -14 3 -18 5 -3 10 -1 10 6 0 9 3 9 14 0 16 -14
59 -24 52 -12 -3 4 2 8 10 8 8 0 13 -5 11 -12 -3 -6 5 -11 18 -11 13 0 23 5
22 11 -1 5 4 9 11 7 8 -1 11 2 7 8 -3 6 -12 7 -18 3 -8 -4 -8 -1 1 9 7 9 12
20 11 24 -3 20 2 35 10 30 5 -4 8 2 6 11 -1 10 3 24 9 32 8 11 8 13 -1 8 -7
-5 -10 -1 -8 10 2 10 4 22 4 26 1 5 5 6 10 2 6 -3 8 5 5 19 -3 17 2 28 13 35
15 8 15 11 3 12 -8 1 -19 1 -24 0 -5 -1 -4 5 4 13 15 19 24 21 14 4 -4 -6 -3
-8 3 -5 5 3 8 20 7 36 -1 18 3 31 9 31 7 0 5 5 -3 10 -12 8 -12 10 5 10 13 0
16 3 8 8 -8 5 -9 13 -3 22 5 9 5 19 -2 27 -8 10 -7 12 6 7 12 -5 15 -2 10 10
-4 10 -1 16 7 16 11 0 11 3 -1 10 -13 8 -13 11 -1 19 7 5 11 13 7 19 -3 6 2
16 11 22 17 11 17 11 1 6 -10 -3 -18 -1 -18 4 0 6 4 10 9 10 5 0 12 7 15 16 3
8 2 13 -3 10 -5 -4 -7 3 -4 14 3 11 10 17 15 14 7 -5 7 -1 0 11 -7 14 -5 23 9
38 14 15 16 24 8 34 -9 10 -8 13 2 13 11 0 11 2 -1 10 -9 6 -10 10 -3 10 6 0
10 9 8 20 -3 14 0 18 8 13 7 -4 20 -6 30 -5 11 2 17 -3 17 -15 0 -14 2 -15 9
-4 6 9 11 10 15 3 4 -6 14 -8 24 -5 14 6 15 4 4 -9 -10 -13 -9 -15 13 -10 16
3 25 0 25 -8 0 -10 3 -10 15 0 12 10 15 9 15 -5 0 -12 6 -16 20 -12 13 3 20 0
20 -10 0 -10 6 -12 21 -8 16 5 19 4 14 -6 -6 -9 -3 -11 8 -6 12 4 17 1 17 -11
0 -15 2 -15 10 -2 9 13 14 7 11 -12 0 -4 6 -5 14 -2 8 4 15 2 15 -3 0 -5 7
-10 15 -11 8 -1 21 -3 29 -4 8 -1 12 -7 9 -14 -3 -9 2 -11 18 -7 16 5 20 3 14
-7 -5 -8 -3 -11 6 -8 8 3 19 -2 25 -10 5 -7 22 -15 36 -15 25 -2 26 -3 10 -22
-9 -11 -10 -14 -2 -8 19 18 33 16 26 -3 -3 -8 -2 -12 3 -9 5 3 13 1 16 -5 5
-8 12 -7 23 2 9 7 13 8 10 3 -4 -6 -3 -17 3 -25 6 -11 9 -12 9 -2 0 7 5 10 10
7 6 -4 8 -10 5 -15 -7 -11 24 -22 38 -13 7 4 5 -2 -3 -12 -8 -10 -10 -16 -4
-12 7 4 17 0 24 -8 7 -8 16 -13 20 -10 4 3 11 -2 14 -11 3 -9 13 -14 21 -11 9
4 12 1 8 -9 -4 -10 0 -12 13 -7 17 6 18 5 4 -12 -14 -17 -13 -18 4 -12 13 5
26 -1 44 -20 15 -16 26 -31 25 -35 -1 -3 4 -9 13 -12 10 -4 13 -2 8 7 -5 8 -2
8 9 -2 9 -7 14 -18 10 -25 -3 -6 -2 -7 2 -3 5 4 15 -3 23 -15 7 -13 11 -15 8
-5 -3 9 -1 17 3 17 13 0 8 25 -9 46 -13 17 -13 18 0 7 14 -10 15 -5 14 45 -1
33 -6 58 -13 60 -8 3 -6 9 6 19 16 13 16 14 1 9 -13 -4 -16 0 -13 16 3 12 0
27 -6 35 -7 7 -7 13 -2 13 5 0 9 9 10 21 2 18 0 19 -15 7 -16 -12 -16 -11 -1
7 17 20 15 50 -2 40 -5 -4 -6 1 -3 9 3 9 11 13 18 10 6 -3 3 1 -6 9 -19 15
-25 32 -8 22 6 -3 10 -1 10 4 0 6 -5 11 -12 11 -9 0 -9 3 0 12 7 7 12 17 12
22 0 6 -5 4 -10 -4 -8 -12 -10 -11 -10 7 0 12 -3 23 -7 26 -5 2 -3 3 3 1 6 -1
11 10 10 26 -1 18 -5 25 -11 20 -7 -6 -11 -2 -12 11 -1 10 4 19 10 19 8 0 9 3
1 8 -17 11 -24 40 -11 46 8 3 8 5 -2 5 -10 1 -11 4 -2 15 9 11 9 16 0 22 -8 4
-9 3 -5 -4 4 -7 3 -12 -2 -12 -5 0 -12 11 -14 25 -3 13 -1 22 3 19 10 -6 -10
57 -22 70 -12 13 -11 26 2 26 5 0 7 -5 4 -10 -3 -6 -1 -10 4 -10 16 0 13 16
-5 31 -8 7 -13 21 -11 31 4 12 0 18 -11 18 -14 0 -14 2 -3 9 11 7 10 10 -5 14
-16 4 -16 5 -2 6 11 1 15 6 12 16 -4 8 -11 12 -18 8 -6 -4 -4 2 4 12 8 10 10
16 4 12 -7 -4 -14 1 -17 12 -3 15 -1 18 12 15 9 -3 6 1 -7 8 -17 11 -20 16
-10 26 11 11 3 16 -23 14 -3 -1 -6 6 -6 13 0 11 4 12 14 4 16 -14 18 2 2 18
-8 8 -7 13 2 18 8 6 10 4 5 -6 -6 -10 -4 -10 6 1 7 8 22 17 33 18 11 2 23 9
26 14 4 6 9 5 12 -3 4 -11 6 -11 6 -1 1 7 6 10 11 7 6 -3 10 -1 10 6 0 8 4 8
15 -1 12 -10 15 -9 15 6 0 16 2 17 10 4 6 -9 10 -11 10 -3 0 7 7 10 17 6 11
-4 14 -3 9 5 -4 7 -3 12 3 12 5 0 12 -8 14 -17 4 -17 5 -17 6 0 0 10 6 15 11
12 6 -3 10 -1 10 5 0 6 10 10 23 8 12 -2 28 4 35 12 9 10 11 11 6 1 -4 -9 -2
-12 7 -9 8 3 13 10 12 16 -2 6 4 9 12 6 8 -4 12 -11 9 -18 -3 -6 2 -2 10 8 16
20 16 20 17 0 0 -18 1 -18 9 1 5 11 9 16 9 11 1 -5 9 -2 18 5 15 12 16 12 9
-5 -7 -19 -6 -19 12 -3 11 10 32 17 48 16 36 -2 57 3 66 16 5 6 8 5 8 -2 0 -7
5 -13 11 -13 6 0 9 7 5 15 -4 12 -2 13 12 6 10 -5 24 -6 31 -2 7 5 21 6 31 4
10 -3 21 0 24 6 9 14 26 14 26 0 0 -5 -5 -7 -12 -3 -7 5 -8 3 -4 -5 6 -9 12
-9 25 3 10 9 21 13 25 9 10 -10 56 -12 50 -1 -3 4 -10 5 -16 2 -7 -4 -8 -2 -4
5 6 9 13 9 29 -2 25 -16 50 -12 41 6 -3 7 2 3 10 -7 16 -19 16 -19 16 -1 0 14
3 16 12 7 9 -9 15 -7 25 6 8 9 12 11 8 5 -3 -7 -3 -13 2 -14 4 0 18 -2 31 -3
12 -2 22 2 22 7 0 6 8 3 18 -7 18 -15 20 -15 40 2 20 18 20 19 2 32 -10 8 -16
18 -13 24 4 6 -1 5 -11 -3 -9 -8 -16 -10 -15 -5 4 23 -3 34 -22 34 -19 0 -20
2 -8 17 8 9 9 14 3 10 -7 -4 -17 0 -24 9 -7 8 -19 13 -27 10 -8 -3 -11 -1 -8
4 3 6 1 10 -5 10 -6 0 -8 5 -5 10 4 6 3 10 -2 9 -21 -4 -33 2 -33 17 0 8 -4
12 -10 9 -5 -3 -10 -1 -10 4 0 6 -7 11 -16 11 -10 0 -14 6 -11 15 7 17 -9 30
-18 15 -4 -7 -15 -2 -28 13 -28 32 -64 50 -80 41 -6 -4 -9 -4 -5 1 4 4 -1 15
-10 24 -11 10 -12 12 -2 6 13 -9 13 -8 2 7 -8 10 -19 16 -25 15 -7 -1 -11 4
-9 12 2 11 0 12 -10 4 -15 -12 -42 9 -30 23 4 5 -1 2 -11 -6 -10 -7 -17 -9
-16 -4 3 18 -1 35 -8 31 -15 -9 -53 12 -53 29 0 14 -3 14 -15 4 -9 -7 -18 -10
-22 -6 -3 3 -1 6 6 6 8 0 7 5 -4 16 -8 9 -24 14 -35 11 -12 -3 -17 0 -14 8 3
7 0 16 -7 21 -8 4 -10 3 -5 -4 8 -13 -20 -6 -40 9 -6 5 -15 5 -19 1 -5 -4 -5
-2 -2 4 4 7 -2 14 -14 17 -14 4 -18 10 -13 19 5 9 2 8 -11 -2 -10 -8 -16 -10
-13 -5 4 6 3 17 -3 25 -7 12 -9 9 -9 -10 -1 -25 -1 -25 -10 -2 -6 12 -18 22
-30 22 -12 0 -20 7 -20 18 0 13 -2 14 -9 4 -6 -11 -10 -10 -15 3 -5 13 -9 15
-20 6 -10 -9 -17 -7 -27 6 -13 17 -13 17 6 3 19 -14 19 -14 6 3 -7 9 -24 17
-37 17 -13 0 -24 5 -24 11 0 8 -6 7 -17 -2 -15 -12 -16 -12 -10 3 4 13 1 16
-14 13 -10 -2 -19 1 -19 7 0 6 -9 8 -21 5 -17 -5 -18 -3 -7 10 12 15 11 15
-11 3 -22 -11 -23 -10 -17 5 5 15 4 16 -9 5 -11 -9 -15 -9 -15 -1 0 7 -5 9
-10 6 -13 -8 -42 14 -34 26 3 5 -6 5 -20 -1 -23 -8 -47 2 -29 13 5 2 2 2 -6 0
-8 -2 -18 2 -23 9 -5 9 -8 7 -8 -7 -1 -16 -4 -13 -15 10 -7 17 -14 24 -14 18
-1 -20 -45 -10 -58 12 -7 11 -12 14 -13 8 0 -7 -7 -13 -16 -13 -9 0 -12 5 -8
13 5 7 0 6 -11 -3 -11 -9 -16 -10 -11 -2 4 6 3 12 -3 12 -5 0 -12 -6 -14 -12
-4 -9 -6 -7 -6 3 -1 11 -9 15 -28 14 -16 -1 -43 6 -61 16 -18 11 -31 15 -28
10 8 -12 -18 -8 -35 5 -8 6 -21 15 -29 19 -13 8 -13 7 0 -11 14 -19 14 -19 -8
0 -17 15 -19 22 -10 28 12 7 4 12 -15 9 -5 -1 -6 3 -3 8 4 5 15 8 26 6 17 -3
19 -1 10 16 -8 13 -8 19 0 19 6 0 15 12 20 26 6 15 14 22 22 18 7 -4 8 -3 4 5
-4 6 -11 9 -16 6 -5 -3 -12 0 -16 6 -4 7 -3 9 3 6 6 -4 19 0 29 8 12 9 14 14
6 15 -10 0 -10 3 0 14 7 8 18 11 23 8 6 -3 1 5 -10 18 l-20 23 24 -13 c18 -9
22 -9 16 0 -4 7 -1 16 6 21 10 6 11 9 2 9 -21 0 -15 20 10 30 12 5 16 9 10 9
-7 1 -13 6 -13 12 0 5 5 7 10 4 6 -3 10 3 10 14 0 11 5 23 10 26 6 4 8 11 5
16 -4 5 -2 9 4 9 5 0 8 9 6 21 -4 18 -2 19 12 7 15 -12 15 -11 4 9 -10 20 -9
23 6 23 15 0 16 2 3 10 -12 8 -12 10 -1 10 8 0 11 3 8 7 -4 3 1 12 11 20 16
14 16 14 -2 9 -15 -5 -17 -4 -8 7 7 8 8 18 4 23 -4 4 1 2 10 -5 15 -11 17 -10
13 8 -2 12 -6 25 -10 31 -3 5 4 7 16 5 17 -4 19 -2 9 10 -7 9 -8 15 -3 15 6 0
10 10 9 23 0 12 4 21 10 20 7 -1 10 10 9 27 -1 17 1 30 6 30 5 0 9 12 9 28 0
21 2 24 10 12 13 -21 13 -3 -1 22 -9 16 -7 24 7 37 17 15 17 15 5 -2 -8 -9
-11 -20 -8 -23 3 -3 10 3 16 14 9 16 7 24 -7 38 -16 17 -16 18 0 11 19 -7 21
14 3 43 -6 11 -3 10 11 -2 19 -16 20 -16 20 2 0 10 -4 16 -8 14 -16 -10 -7 6
15 27 17 17 18 21 5 16 -10 -4 -18 -2 -18 3 0 6 4 10 9 10 5 0 8 8 6 18 -1 9
2 22 7 29 5 7 7 16 4 22 -3 5 0 11 8 14 9 4 12 17 10 37 -3 23 0 29 9 24 9 -6
8 -3 -1 8 -10 13 -10 18 -1 24 8 5 10 3 4 -7 -5 -8 -4 -11 0 -6 5 4 10 24 11
44 0 21 7 39 13 41 8 3 6 9 -6 19 -17 14 -17 14 1 9 15 -5 17 -4 7 8 -9 11 -9
16 0 21 8 6 7 10 -2 16 -11 7 -11 9 -1 9 8 0 11 9 8 26 -4 20 -2 24 11 20 13
-5 14 -4 4 8 -9 11 -10 20 -1 35 6 12 7 21 2 21 -5 0 -9 7 -9 15 0 8 5 11 10
8 5 -3 7 0 5 8 -3 8 -2 26 3 40 4 17 3 32 -4 39 -9 10 -9 11 1 6 7 -4 12 -2
13 6 0 7 2 30 4 51 2 23 -1 37 -9 37 -7 0 -7 3 -1 8 6 4 16 18 24 32 13 23 13
24 -2 12 -14 -12 -16 -11 -14 7 0 11 5 17 9 14 5 -2 6 8 2 23 -6 21 -4 25 7
19 11 -6 12 -5 2 6 -7 7 -13 23 -13 36 0 13 6 23 13 23 8 0 7 4 -3 10 -11 7
-11 10 -2 10 7 0 10 5 7 10 -4 6 -12 8 -18 4 -7 -3 -5 0 3 8 18 16 24 38 10
38 -5 0 -10 5 -10 11 0 5 5 7 10 4 6 -3 10 -1 10 4 0 6 -4 11 -10 11 -5 0 -10
5 -10 11 0 5 4 8 8 5 4 -2 8 4 8 14 0 10 -3 17 -6 15 -4 -2 -7 2 -7 10 0 8 4
12 9 9 4 -3 8 0 8 5 0 6 -5 11 -11 11 -8 0 -7 6 2 17 17 20 17 16 -1 38 -9 11
-10 16 -2 11 6 -4 12 -2 12 3 0 6 -6 11 -12 11 -9 0 -8 4 2 10 13 9 13 10 0
10 -13 0 -13 1 0 10 13 8 13 10 1 10 -11 0 -12 3 -4 11 9 9 7 18 -5 38 -16 25
-16 25 1 12 16 -12 18 -12 15 0 -2 8 -11 19 -22 25 -17 10 -17 12 -2 17 11 5
15 3 10 -5 -4 -6 -3 -8 4 -5 11 8 11 25 -2 45 -4 7 -3 19 3 26 8 9 7 13 -4 13
-8 0 -11 -5 -8 -10 3 -6 1 -7 -6 -3 -8 5 -9 12 -3 19 12 15 13 69 1 61 -5 -3
-4 7 3 22 10 22 10 28 0 32 -10 3 -10 7 0 20 8 9 8 13 2 9 -7 -4 -15 0 -18 9
-3 8 -2 12 4 9 6 -3 10 -1 10 4 0 6 -6 11 -12 11 -10 0 -9 3 1 9 9 6 10 11 2
15 -6 4 -9 12 -6 17 4 5 0 9 -7 9 -9 0 -9 3 2 10 13 9 13 10 0 10 -11 0 -12 2
-3 8 10 6 9 14 -2 36 -14 26 -13 28 2 22 15 -6 15 -5 2 11 -9 10 -14 30 -13
46 2 15 -1 27 -5 27 -4 0 -9 19 -10 43 -2 23 -3 48 -4 55 0 7 -6 11 -13 8 -8
-3 -11 0 -7 9 3 8 10 12 17 8 6 -3 6 -1 -1 8 -7 7 -13 21 -13 31 0 10 -5 18
-11 18 -8 0 -8 5 1 15 7 8 8 15 3 15 -13 0 -14 42 0 60 8 10 5 9 -9 -3 -17
-14 -21 -15 -21 -2 0 8 3 15 7 15 4 0 7 7 7 15 0 9 -6 14 -14 11 -7 -3 -13 -1
-13 4 0 6 5 10 12 10 7 0 5 7 -5 18 -10 11 -13 22 -7 32 13 21 1 33 -18 18
-12 -9 -11 -6 2 10 18 21 13 28 -18 23 -5 -1 -2 9 7 22 14 22 14 26 -9 52 -28
33 -31 43 -7 24 15 -13 15 -12 4 9 -7 12 -16 20 -21 17 -10 -6 -8 15 4 34 7
10 6 12 -4 6 -10 -6 -12 -4 -7 8 3 9 1 19 -5 23 -7 5 -8 2 -3 -6 5 -8 4 -11
-2 -7 -11 7 -11 36 0 54 5 7 0 9 -15 6 -23 -5 -23 -5 -3 11 11 10 14 14 6 10
-11 -5 -13 -3 -8 10 4 9 3 15 -2 12 -5 -3 -12 1 -15 10 -3 8 -2 12 3 9 5 -3
13 -1 16 5 4 6 3 10 -2 9 -24 -4 -33 4 -33 27 0 14 -4 23 -8 20 -4 -2 -9 4 -9
15 -1 12 3 17 9 13 7 -5 8 -2 4 5 -5 7 -15 10 -24 6 -9 -3 -13 -3 -10 1 4 4 3
16 -3 27 -8 14 -8 18 0 13 17 -11 13 10 -5 29 -9 8 -13 23 -10 32 6 14 4 14
-10 2 -16 -13 -16 -12 -5 10 8 15 9 21 2 17 -7 -5 -11 1 -11 14 0 14 -4 19
-12 14 -10 -6 -10 -5 0 8 10 13 9 18 -5 29 -17 13 -17 13 -3 -5 9 -12 10 -17
3 -12 -7 4 -18 16 -24 28 -8 15 -8 19 0 14 6 -4 11 -2 11 3 0 6 -7 11 -16 11
-8 0 -12 5 -9 10 4 6 12 7 18 3 7 -4 6 0 -2 10 -7 9 -21 17 -29 17 -12 0 -13
3 -5 11 9 9 6 17 -10 31 -12 11 -15 16 -7 12 12 -6 11 -2 -3 19 -10 15 -15 33
-10 40 4 7 -2 5 -12 -3 -14 -11 -17 -11 -11 -1 5 8 3 17 -5 22 -10 6 -11 9 -1
9 6 0 12 5 12 10 0 7 -6 7 -19 0 -17 -9 -19 -7 -16 10 2 11 -4 24 -13 31 -16
10 -16 10 0 5 12 -3 15 -1 11 9 -3 8 -9 12 -14 9 -8 -5 -13 12 -12 44 1 10 -2
10 -13 1 -10 -8 -12 -6 -9 10 2 12 0 19 -4 16 -5 -3 -12 2 -15 11 -3 8 -10 12
-16 9 -5 -3 -7 0 -4 9 6 16 -20 72 -45 95 -9 9 -12 14 -6 11 6 -3 3 2 -7 12
-10 9 -19 28 -20 42 -2 19 -5 22 -15 14 -8 -6 -16 -8 -20 -4 -3 3 -1 6 7 6 10
0 10 3 0 15 -6 8 -9 19 -5 24 3 7 0 8 -9 5 -11 -4 -16 0 -16 11 0 9 -5 13 -11
9 -8 -4 -8 0 0 15 10 18 9 20 -5 14 -12 -4 -15 -3 -10 5 4 7 1 12 -7 12 -8 0
-21 8 -28 18 -13 15 -12 16 4 3 15 -12 17 -12 11 3 -3 9 -14 16 -23 16 -14 0
-14 2 -1 10 13 8 13 10 -1 10 -9 0 -24 10 -35 22 -10 12 -13 18 -6 14 7 -4 12
-2 12 7 0 8 -7 18 -16 21 -10 4 -13 2 -8 -6 5 -7 3 -8 -5 -3 -7 4 -10 16 -8
27 4 16 3 17 -9 7 -11 -9 -14 -7 -14 10 0 12 -4 19 -10 16 -6 -3 -7 1 -4 9 4
11 0 16 -12 16 -16 0 -17 2 -4 10 12 8 10 10 -9 10 -13 0 -22 3 -18 6 3 3 -6
17 -20 30 -14 13 -23 24 -19 24 4 0 2 9 -4 20 -6 11 -17 20 -25 20 -8 0 -15 9
-15 21 0 11 -4 17 -10 14 -5 -3 -10 -1 -10 5 0 6 -5 8 -10 5 -6 -4 -9 -1 -8 7
2 7 -5 12 -14 12 -10 -1 -15 3 -12 8 3 5 -3 16 -15 24 -12 8 -21 20 -21 25 0
15 -26 39 -34 32 -3 -4 -6 -1 -6 6 0 16 -25 41 -40 41 -6 0 -9 4 -5 9 3 5 -4
12 -15 16 -11 3 -20 13 -20 21 0 9 -5 12 -12 8 -8 -5 -9 -2 -5 10 4 10 3 15
-3 11 -6 -3 -13 1 -16 9 -3 9 -10 14 -14 11 -4 -2 -16 5 -26 17 -11 12 -13 18
-5 13 10 -5 12 -4 7 3 -4 7 -14 12 -22 12 -8 0 -12 5 -9 10 3 6 2 10 -2 10 -5
0 -18 7 -29 16 -10 8 -13 12 -5 8 10 -5 12 -3 7 5 -6 9 -11 9 -24 -1 -12 -10
-14 -10 -8 0 4 7 2 12 -4 12 -6 0 -9 4 -6 9 3 5 -6 12 -19 15 -14 4 -23 11
-19 17 3 6 -3 13 -15 16 -11 3 -18 9 -15 14 3 5 -1 9 -9 9 -7 0 -23 14 -35 30
-13 17 -27 30 -33 30 -6 0 -17 7 -26 16 -9 8 -22 13 -30 10 -8 -3 -12 -2 -9 2
3 5 -4 14 -14 22 -10 8 -17 17 -14 22 3 4 -7 8 -21 8 -15 0 -24 4 -20 10 3 6
0 10 -8 10 -8 0 -18 7 -21 16 -4 10 -12 14 -22 10 -14 -5 -15 -4 -5 8 10 12 8
13 -10 9 -15 -4 -20 -3 -15 5 5 8 -2 12 -20 12 -23 0 -25 2 -14 15 11 13 10
14 -3 10 -8 -4 -18 -1 -22 4 -3 6 -11 9 -16 5 -5 -3 -9 -2 -8 3 4 20 -2 27
-12 13 -9 -12 -10 -11 -6 7 4 20 3 21 -15 12 -15 -8 -19 -8 -14 0 4 6 0 11 -9
11 -8 0 -18 6 -21 14 -3 8 -18 23 -32 32 -25 16 -26 16 -13 1 12 -15 12 -17
-3 -11 -9 3 -16 10 -16 16 0 5 -5 6 -12 2 -7 -4 -8 -3 -4 4 3 6 -3 16 -15 22
-15 8 -19 9 -15 1 4 -6 2 -11 -3 -11 -6 0 -11 8 -11 18 0 11 -9 17 -27 19 -15
0 -36 12 -46 25 -11 12 -23 24 -28 24 -5 1 -12 3 -16 4 -5 1 -11 2 -15 1 -5 0
-8 3 -8 8 0 5 -7 12 -16 15 -12 5 -14 3 -8 -7 5 -7 2 -5 -8 5 -9 10 -22 18
-28 18 -6 0 -20 10 -31 23 -17 20 -19 20 -13 2 5 -18 4 -18 -8 -4 -13 16 -19
19 -39 19 -5 0 -7 6 -3 13 4 6 4 9 -1 5 -4 -4 -15 -2 -23 5 -13 10 -14 9 -7
-3 7 -12 6 -13 -7 -3 -8 7 -19 9 -23 5 -5 -4 -5 -1 -1 6 5 8 0 12 -13 12 -12
0 -20 6 -19 13 2 7 -5 11 -17 9 -12 -1 -31 7 -43 18 -12 11 -22 16 -22 10 0
-6 -5 -8 -10 -5 -6 4 -7 11 -4 17 4 7 2 8 -4 4 -13 -8 -92 15 -92 27 0 5 -4 5
-10 2 -5 -3 -10 -2 -10 4 0 6 -6 8 -14 5 -8 -3 -24 4 -35 15 -12 12 -21 17
-21 11 0 -5 -5 -10 -11 -10 -16 0 -39 26 -31 35 4 4 -4 2 -17 -5 -15 -8 -21
-8 -17 -1 6 10 -21 17 -47 12 -5 -1 -6 3 -2 9 3 6 -3 10 -15 10 -12 0 -18 5
-15 10 3 6 2 10 -4 10 -6 0 -7 7 -4 17 5 12 3 14 -7 8 -9 -5 -11 -4 -6 3 5 8
13 9 25 2 10 -5 21 -6 25 -3 3 4 12 -2 20 -12 10 -14 15 -15 21 -5 5 9 4 11
-3 6 -8 -5 -10 -1 -5 9 5 13 7 14 14 3 5 -7 9 -10 9 -6 0 4 11 3 25 -2 24 -9
25 -9 14 13 -12 21 -11 21 6 7 11 -9 16 -10 11 -2 -4 7 -2 12 4 12 6 0 8 5 5
10 -3 6 -1 10 5 10 6 0 8 5 5 10 -3 6 2 10 12 10 14 0 15 2 5 9 -7 4 -15 20
-16 34 -2 15 0 24 5 22 4 -3 11 0 15 6 4 8 3 9 -4 5 -7 -4 -12 -2 -12 4 0 6
-4 8 -10 5 -5 -3 -10 -1 -10 5 0 18 -24 37 -43 34 -10 -1 -14 2 -10 9 4 7 0 8
-11 4 -11 -5 -15 -3 -10 5 5 7 0 9 -14 6 -12 -3 -21 -3 -20 1 2 20 -4 22 -17
5 -13 -16 -14 -17 -9 -1 4 10 3 17 -2 16 -30 -5 -64 2 -58 13 5 7 3 8 -5 4 -7
-5 -20 -1 -31 9 -18 16 -18 16 -14 -7 5 -20 3 -20 -11 5 -16 28 -17 28 -37 10
-19 -16 -21 -16 -15 -1 4 13 2 15 -10 11 -12 -5 -14 -2 -9 8 4 8 0 5 -10 -6
-12 -15 -15 -16 -11 -3 5 13 -1 16 -31 16 -20 0 -38 5 -40 11 -2 6 -13 11 -25
12 -20 1 -20 2 3 9 20 6 21 8 5 9 -13 1 -16 4 -9 11 8 8 20 7 40 -1 16 -7 41
-11 57 -10 15 2 27 -3 27 -9 0 -8 11 -11 30 -8 17 3 30 1 30 -4 0 -5 5 -6 11
-3 6 4 17 -1 25 -11 13 -18 14 -18 8 1 -6 16 -5 18 7 8 7 -7 21 -13 30 -13 10
0 20 -8 22 -17 4 -16 5 -16 6 1 1 18 2 18 19 -1 9 -10 13 -13 8 -6 -6 10 -4
12 8 7 9 -3 16 -10 16 -15 0 -5 14 -9 30 -9 30 0 41 -14 18 -23 -7 -3 2 -3 20
0 18 3 32 1 32 -4 0 -6 11 -10 25 -10 14 0 25 4 25 9 0 5 5 6 11 2 7 -4 6 2
-2 17 -11 21 -11 23 4 11 13 -11 15 -11 13 0 -1 7 -6 19 -10 27 -6 9 -5 12 0
8 6 -3 16 -2 24 4 12 7 12 9 1 9 -11 0 -11 3 -1 15 10 12 10 15 0 15 -7 0 -2
9 11 20 16 13 19 19 10 20 -11 0 -8 6 7 23 12 13 22 27 22 33 0 5 -5 2 -10 -6
-8 -11 -9 -9 -6 10 3 14 5 28 5 33 1 4 6 7 12 7 8 0 7 -6 -2 -17 -13 -16 -12
-17 3 -4 14 10 15 17 7 33 -8 15 -8 19 0 14 9 -6 13 6 10 30 0 4 3 10 8 13 13
9 32 58 26 65 -3 3 -13 0 -21 -7 -13 -9 -14 -9 -8 1 4 6 3 12 -1 12 -5 0 -15
-6 -22 -12 -11 -11 -12 -10 -6 1 6 10 4 12 -4 7 -7 -5 -10 -14 -7 -22 4 -12 2
-12 -14 -4 -15 8 -21 6 -29 -9 -6 -11 -19 -18 -28 -17 -10 2 -21 -2 -25 -8 -5
-8 -8 -7 -8 2 0 6 -5 12 -11 12 -5 0 -8 -4 -4 -9 3 -5 1 -12 -5 -16 -5 -3 -10
0 -10 7 0 11 -2 11 -9 0 -4 -7 -12 -12 -17 -11 -21 4 -35 -2 -29 -11 3 -5 1
-10 -4 -10 -6 0 -11 5 -11 11 0 8 -4 8 -12 2 -19 -14 -69 -15 -85 -2 -11 9
-12 8 -7 -5 4 -11 2 -15 -7 -12 -47 15 -70 16 -63 4 5 -7 -5 -5 -20 6 -16 10
-25 13 -22 7 4 -6 1 -11 -8 -11 -8 0 -18 5 -21 10 -4 6 -10 8 -15 5 -5 -3 -11
-1 -15 5 -4 6 -11 8 -16 5 -5 -4 -9 0 -9 7 0 11 -2 10 -9 0 -7 -11 -9 -11 -14
2 -4 11 -15 15 -31 12 -16 -3 -27 1 -30 10 -3 9 -10 12 -16 9 -6 -3 -14 4 -19
17 -6 14 -10 17 -11 8 -1 -9 -5 -6 -10 8 -6 13 -18 22 -30 22 -12 0 -18 5 -15
10 3 6 -1 10 -10 10 -12 0 -15 5 -11 17 4 10 4 14 0 10 -4 -4 -13 1 -21 11
-12 16 -13 16 -8 -3 5 -18 4 -17 -6 2 -12 22 -43 36 -54 24 -4 -3 -19 -6 -33
-6 -18 -1 -26 -5 -24 -15 3 -11 -2 -10 -16 3 -19 18 -20 18 -18 0 1 -13 -6
-18 -21 -17 -13 1 -23 -2 -23 -6 0 -5 -10 -6 -22 -2 -16 4 -19 2 -13 -9 8 -12
6 -12 -8 0 -14 11 -17 11 -17 0 0 -11 -2 -11 -10 1 -9 13 -11 13 -20 0 -5 -8
-10 -11 -10 -6 0 5 -7 2 -17 -5 -15 -13 -15 -12 -5 8 8 14 9 24 2 28 -18 11
-10 20 20 21 27 2 29 0 18 -15 -8 -10 -4 -9 10 3 13 11 38 21 58 21 19 1 37 5
42 9 4 4 1 6 -7 4 -7 -1 -16 4 -18 12 -3 9 -1 11 4 5 12 -15 43 -18 43 -4 0 9
3 9 14 0 15 -13 32 1 22 17 -3 5 1 9 9 9 8 0 12 -4 9 -9 -4 -5 3 -4 14 3 12 7
19 16 17 19 -2 3 5 7 16 7 13 1 17 -2 12 -10 -4 -7 1 -6 11 2 9 8 16 10 15 5
-1 -5 -1 -15 0 -23 1 -11 4 -11 18 0 10 8 14 9 10 2 -9 -14 32 -55 46 -46 6 3
7 1 4 -5 -11 -17 4 -42 25 -42 15 0 18 -5 13 -22 -3 -13 -3 -18 2 -13 10 12
45 16 37 4 -3 -5 0 -10 5 -10 6 -1 15 -2 21 -3 5 0 19 -9 30 -18 23 -20 35
-23 24 -7 -8 14 38 -10 49 -25 5 -8 10 -6 17 4 8 12 10 12 10 1 0 -8 7 -11 19
-8 14 3 18 1 14 -9 -4 -10 0 -12 11 -8 9 3 13 11 10 18 -3 6 2 2 10 -8 12 -15
16 -16 16 -5 0 11 2 12 9 0 6 -9 11 -10 15 -2 4 6 13 11 19 11 7 0 6 -4 -3
-10 -9 -6 -10 -10 -3 -10 6 0 15 5 19 11 4 8 9 7 15 -2 6 -9 12 -10 17 -4 11
16 47 41 39 29 -4 -7 0 -17 8 -24 13 -11 14 -10 10 2 -8 20 34 31 54 15 9 -7
12 -8 8 -1 -3 6 5 16 19 23 20 9 24 9 19 -1 -4 -7 0 -5 8 5 8 9 17 17 20 17 4
0 4 -8 1 -17 -2 -10 1 -8 7 5 7 12 16 22 21 22 5 0 6 -6 3 -12 -4 -7 0 -4 9 6
8 10 13 23 9 29 -3 6 -1 7 6 3 6 -4 8 -12 5 -18 -4 -7 -2 -8 4 -4 7 4 12 15
13 24 0 10 3 12 6 5 5 -14 19 -4 42 32 9 14 11 15 7 3 -3 -10 -1 -20 5 -23 5
-4 8 -3 7 2 -5 16 24 54 37 49 10 -3 12 2 9 22 -5 26 -5 26 10 7 15 -20 15
-20 11 3 -2 14 2 25 10 29 8 3 13 9 10 13 -7 11 5 41 14 35 4 -2 8 2 8 10 0 8
-4 12 -9 9 -4 -3 -5 2 -2 10 3 8 11 14 17 12 7 -1 9 -1 5 1 -5 3 -8 11 -8 19
0 9 4 13 9 9 5 -3 13 0 17 6 4 8 3 9 -4 5 -19 -11 -14 5 6 21 16 14 16 14 -2
9 -16 -6 -17 -4 -6 9 7 8 17 12 22 9 6 -4 5 3 -1 15 -10 17 -9 21 3 21 9 0 13
6 10 14 -3 8 0 17 5 21 6 3 8 11 5 17 -5 8 -1 9 11 4 15 -5 16 -4 6 8 -9 11
-9 15 1 19 10 4 9 6 -1 6 -11 1 -11 4 3 14 10 7 19 25 19 40 1 15 8 29 16 32
11 4 11 8 1 20 -11 13 -10 14 6 8 17 -6 18 -5 5 11 -8 9 -10 16 -5 15 5 -1 16
-1 24 0 13 1 13 2 0 11 -8 5 -10 10 -4 10 6 0 14 14 18 31 4 21 10 28 18 23
11 -6 11 -5 0 8 -10 12 -10 17 1 27 8 6 18 7 23 3 4 -4 2 1 -6 11 -7 10 -9 17
-4 16 21 -4 24 2 13 24 -11 20 -11 21 5 8 16 -13 17 -13 14 5 -2 12 2 18 10
16 8 -1 11 2 7 8 -10 15 5 51 17 44 7 -5 9 -1 5 9 -3 10 -2 17 3 17 6 0 10 9
10 19 0 11 10 27 23 36 l22 17 -25 -6 c-24 -6 -24 -6 -3 5 12 6 23 21 25 33 2
12 10 20 17 18 12 -3 12 0 2 12 -10 11 -9 16 4 23 9 5 18 16 19 24 6 29 18 49
27 43 9 -5 13 10 10 30 -1 5 6 3 15 -5 16 -13 16 -12 5 10 -7 13 -8 21 -3 17
6 -3 13 -2 17 4 3 5 1 10 -6 10 -8 0 -7 5 2 17 10 11 10 14 2 9 -7 -4 -13 -3
-13 2 0 13 -45 9 -63 -6 -12 -10 -17 -10 -23 -1 -5 8 -3 9 6 4 9 -5 11 -4 6 4
-8 13 -15 9 -60 -31 -11 -10 -22 -15 -25 -12 -3 3 1 9 8 13 7 5 9 11 5 13 -5
3 -18 -4 -29 -15 -11 -11 -14 -16 -6 -12 10 6 12 4 7 -4 -6 -9 -11 -9 -21 -1
-10 8 -14 8 -17 -1 -5 -16 -38 -21 -39 -6 0 7 -4 3 -8 -8 -5 -11 -13 -21 -20
-21 -6 -1 -16 -2 -22 -3 -5 0 -7 -7 -3 -13 5 -8 0 -7 -11 2 -15 12 -17 12 -10
1 6 -11 3 -13 -13 -9 -16 4 -19 2 -15 -10 4 -10 2 -13 -5 -8 -7 4 -15 1 -18
-8 -3 -8 -11 -13 -17 -11 -7 2 -28 -10 -47 -27 -19 -17 -28 -27 -20 -22 12 6
13 5 3 -8 -7 -8 -9 -19 -5 -23 4 -5 -2 -5 -12 -1 -17 6 -17 5 -5 -11 9 -11 10
-14 2 -9 -8 4 -13 1 -13 -8 0 -9 -4 -16 -9 -16 -5 0 -8 -11 -7 -25 2 -15 -1
-22 -7 -18 -6 4 -8 0 -4 -10 3 -9 2 -19 -3 -22 -18 -11 -11 -35 8 -28 14 5 13
3 -3 -10 -11 -9 -15 -17 -10 -17 11 0 -15 -20 -27 -20 -5 0 -8 7 -8 15 0 8 -5
15 -11 15 -5 0 -8 4 -5 9 3 4 -6 7 -20 5 -14 -1 -27 3 -30 10 -6 16 -44 18
-44 3 0 -8 -3 -8 -8 -2 -11 16 -42 17 -60 3 -9 -7 -13 -8 -9 -2 4 7 0 14 -8
18 -8 3 -19 -3 -25 -13 -6 -13 -17 -17 -30 -14 -13 3 -26 -2 -37 -16 -10 -12
-28 -23 -40 -24 -17 -1 -19 -4 -11 -14 6 -8 8 -16 4 -20 -3 -3 -6 -1 -6 6 0 7
-5 9 -10 6 -6 -4 -8 -11 -5 -16 3 -5 -1 -6 -9 -3 -9 3 -16 2 -16 -4 0 -6 6
-13 13 -15 10 -4 10 -6 0 -6 -7 -1 -13 -9 -13 -18 0 -16 -2 -16 -11 -3 -8 12
-9 11 -7 -5 2 -11 -3 -26 -12 -33 -8 -8 -9 -11 -2 -7 15 8 15 0 0 -28 -6 -12
-12 -30 -13 -39 -1 -14 1 -15 12 -6 11 8 12 7 7 -6 -3 -9 -11 -16 -16 -16 -6
0 -3 -12 7 -26 9 -15 12 -23 6 -20 -6 4 -11 3 -11 -3 0 -5 5 -11 11 -13 9 -3
15 -22 18 -51 1 -5 7 -5 14 -1 10 6 10 4 0 -7 -16 -16 -17 -29 -2 -29 5 0 7 6
3 13 -4 7 -3 9 2 4 5 -5 9 -14 9 -19 0 -6 6 -13 14 -16 9 -3 11 0 6 8 -5 9 -4
11 4 6 6 -4 9 -11 6 -16 -3 -5 -1 -11 5 -15 5 -3 10 1 10 9 0 8 5 18 12 22 7
5 8 3 3 -7 -8 -12 -6 -12 8 0 9 7 17 20 17 28 0 13 3 13 15 3 13 -11 14 -10 9
5 -5 13 -4 16 4 11 7 -4 12 -2 12 4 0 7 7 9 16 6 15 -6 15 -4 3 11 -9 11 -9
14 -2 9 7 -4 22 -2 34 4 17 10 21 8 26 -9 4 -17 8 -19 19 -10 11 9 14 9 14 0
0 -7 4 -10 9 -6 5 3 13 0 17 -6 5 -8 2 -10 -7 -5 -8 4 -3 -1 10 -12 13 -11 21
-24 17 -31 -4 -6 -3 -11 3 -11 5 0 9 -8 9 -17 0 -10 0 -22 2 -28 6 -23 -1 -34
-17 -28 -17 7 -17 6 0 -11 19 -19 23 -31 6 -21 -6 4 -10 1 -8 -6 3 -27 -1 -39
-14 -39 -7 0 -18 -12 -25 -27 -10 -26 -11 -26 -6 -3 6 24 6 24 -10 5 -8 -11
-16 -27 -16 -35 0 -13 -1 -13 -10 0 -8 12 -10 10 -10 -9 0 -21 -2 -22 -17 -10
-9 8 -14 9 -10 2 5 -7 -4 -14 -23 -18 -18 -4 -30 -13 -30 -23 0 -13 -3 -13
-16 4 -8 10 -12 13 -8 5 5 -11 3 -13 -9 -8 -10 3 -17 3 -17 -1 0 -4 -9 -8 -20
-9 -13 -1 -18 3 -14 10 3 7 -1 4 -9 -5 -17 -21 -28 -23 -21 -5 3 8 -2 14 -11
14 -8 0 -15 -5 -15 -11 0 -6 -5 -4 -10 4 -9 13 -11 13 -20 0 -7 -11 -10 -11
-10 -2 0 7 -4 10 -10 7 -6 -4 -7 1 -3 11 4 11 3 15 -4 11 -16 -10 -44 3 -36
17 4 6 -1 5 -10 -3 -15 -12 -17 -11 -17 5 0 16 -2 17 -10 4 -8 -13 -10 -12
-10 3 0 9 -6 16 -12 15 -7 -2 -12 2 -11 9 2 6 -6 15 -17 18 -11 4 -20 11 -20
16 0 6 5 7 12 3 7 -4 8 -3 4 4 -4 7 -14 12 -22 12 -8 0 -14 7 -14 16 0 20 -25
45 -35 36 -5 -4 -5 -1 -1 6 5 7 13 10 20 5 7 -4 3 0 -7 10 -11 9 -15 17 -10
17 5 0 10 7 10 15 0 8 -4 15 -9 15 -5 0 -6 5 -3 10 4 6 12 8 18 4 7 -3 3 2 -7
10 -18 15 -18 16 -2 16 10 0 14 4 10 12 -5 8 -2 9 10 5 14 -6 17 -3 12 10 -4
10 -4 14 0 10 4 -4 13 1 21 11 8 9 12 12 9 5 -4 -6 -1 -15 5 -19 7 -4 9 -3 5
4 -3 6 -2 13 4 17 6 4 7 12 3 18 -4 7 2 5 12 -3 17 -14 18 -13 12 4 -5 13 -3
17 7 13 11 -4 13 -1 9 10 -5 11 -3 14 6 8 11 -6 11 -3 0 16 -12 23 -11 23 7 9
18 -15 18 -14 1 12 -13 21 -14 26 -3 22 11 -4 13 2 9 26 -3 20 -1 30 6 26 5
-4 13 -1 17 6 4 7 4 10 -1 6 -11 -10 -38 20 -32 36 3 8 -3 24 -14 37 -23 26
-24 33 -4 26 11 -5 12 -1 4 20 -9 24 -8 25 7 12 16 -13 16 -12 5 10 -8 15 -9
21 -2 17 6 -4 15 4 21 18 11 29 22 36 14 9 -2 -10 3 -3 13 15 10 19 22 31 30
28 8 -4 18 5 23 19 5 14 15 25 21 25 7 0 18 8 25 18 13 16 14 16 7 -3 -6 -17
-5 -18 9 -5 11 10 13 19 6 27 -7 8 -3 10 14 6 16 -3 19 -2 10 5 -7 5 -15 18
-16 28 -2 10 -7 19 -12 19 -5 0 -15 4 -22 9 -12 7 -12 4 -2 -15 l11 -24 -20
23 c-10 12 -21 17 -23 12 -2 -6 -11 -4 -23 5 -11 9 -14 14 -8 10 9 -4 11 -1 7
10 -5 13 -9 13 -23 3 -9 -7 -5 1 9 16 14 16 18 26 10 22 -8 -4 -6 0 4 8 13 10
15 16 7 16 -11 0 -11 3 -1 15 10 12 10 15 -1 15 -11 0 -11 2 1 10 13 8 12 10
-4 10 -20 0 -20 0 0 16 10 8 13 13 7 9 -14 -7 -19 30 -5 38 4 2 2 2 -5 1 -16
-4 -26 13 -13 21 6 4 4 12 -5 22 -9 9 -14 22 -11 29 3 7 0 16 -6 20 -7 5 -8 2
-3 -6 5 -8 4 -11 -3 -6 -6 4 -9 13 -5 21 3 10 -1 15 -12 15 -10 0 -14 5 -9 13
4 6 -4 2 -17 -10 -20 -18 -28 -20 -39 -10 -10 10 -11 9 -5 -2 6 -11 4 -13 -10
-7 -16 6 -16 4 -4 -11 11 -13 11 -15 1 -9 -15 9 -44 -23 -35 -38 4 -5 1 -6 -6
-2 -6 4 -9 12 -6 17 4 5 4 9 1 9 -3 0 -10 -10 -17 -21 -9 -17 -8 -20 3 -13 11
6 11 5 -1 -9 -7 -9 -18 -14 -25 -10 -6 4 -4 -2 4 -12 9 -11 10 -16 3 -11 -12
6 -18 -11 -14 -36 0 -5 -2 -7 -7 -7 -20 3 -25 -2 -12 -12 12 -9 10 -10 -8 -6
-23 5 -23 5 -7 -13 11 -12 13 -20 5 -25 -5 -3 -8 -10 -6 -14 3 -4 -1 -8 -9 -8
-8 0 -12 4 -10 8 3 4 -2 9 -10 13 -8 3 -17 1 -20 -4 -10 -17 -28 -11 -21 6 5
14 4 15 -8 5 -11 -9 -15 -9 -19 1 -4 11 -6 10 -6 0 -1 -7 -6 -10 -12 -6 -7 4
-10 1 -7 -7 3 -8 -2 -22 -11 -32 -12 -14 -12 -18 -2 -15 8 2 17 -8 21 -22 4
-14 12 -24 19 -22 7 1 10 -2 7 -7 -4 -5 -3 -11 1 -14 5 -2 3 -2 -4 -1 -7 2
-15 -2 -19 -9 -4 -7 -4 -9 1 -5 12 11 35 -11 35 -34 0 -12 4 -17 12 -12 7 5 8
3 2 -7 -12 -20 -14 -40 -3 -33 5 3 9 0 9 -5 0 -6 -6 -11 -12 -11 -9 0 -9 -3
-2 -8 17 -11 24 -41 12 -48 -7 -5 -8 -2 -3 6 5 8 4 11 -3 7 -5 -4 -8 -16 -5
-27 4 -16 2 -19 -12 -13 -13 4 -16 3 -11 -5 5 -8 0 -12 -13 -12 -23 0 -28 -15
-8 -24 6 -3 2 -3 -10 -1 -12 3 -25 0 -29 -6 -5 -8 -2 -10 7 -5 8 4 6 1 -4 -8
-13 -10 -17 -21 -12 -35 4 -13 2 -21 -5 -21 -6 0 -8 5 -5 10 3 6 1 10 -4 10
-6 0 -12 -6 -12 -12 -1 -7 -3 -27 -5 -45 -2 -18 1 -35 6 -38 6 -3 10 -12 10
-18 0 -7 -4 -6 -10 3 -7 12 -9 10 -7 -7 0 -12 5 -19 9 -17 7 5 12 -10 9 -28 0
-5 4 -8 9 -8 6 0 10 -7 10 -15 0 -8 6 -15 13 -15 9 0 9 -2 -1 -9 -11 -7 -11
-9 2 -14 18 -7 22 -37 5 -37 -5 0 -7 -5 -3 -12 5 -8 2 -9 -10 -5 -14 5 -15 3
-6 -13 9 -16 7 -18 -10 -15 -11 2 -23 -1 -26 -7 -5 -7 -2 -8 6 -3 8 5 11 3 8
-6 -3 -8 -11 -13 -17 -12 -6 2 -11 -2 -11 -7 0 -6 -7 -10 -15 -10 -8 0 -15 -8
-15 -17 0 -15 -2 -16 -10 -3 -8 13 -11 13 -22 1 -11 -11 -11 -13 1 -6 9 5 12
4 7 -3 -5 -9 -13 -9 -28 -1 -12 6 -18 7 -14 1 3 -5 -1 -12 -8 -15 -8 -3 -17
-1 -20 6 -3 9 -5 9 -5 0 -1 -7 -12 -13 -25 -13 -13 0 -27 6 -29 13 -3 7 -6 4
-6 -6 -1 -11 -6 -15 -12 -11 -7 4 -21 8 -33 8 -11 1 -20 7 -19 12 1 6 -4 11
-12 11 -7 0 -11 -7 -7 -15 4 -12 1 -12 -20 2 -13 9 -29 13 -33 9 -5 -5 -4 0 3
9 12 14 10 16 -8 11 -13 -4 -26 1 -36 13 -9 11 -12 12 -8 4 4 -9 -2 -7 -13 5
-11 11 -18 23 -16 28 6 11 -21 4 -30 -8 -4 -5 -5 3 -1 19 5 21 4 27 -5 22 -6
-4 -12 -2 -12 3 -1 6 -2 16 -3 22 0 6 -9 16 -18 23 -14 10 -15 15 -5 26 10 10
9 11 -2 5 -11 -6 -13 -4 -8 8 3 9 1 19 -5 23 -7 5 -8 2 -3 -6 5 -9 4 -11 -4
-6 -6 4 -8 13 -4 19 10 16 12 57 2 52 -8 -6 -6 11 5 37 4 9 5 22 1 27 -3 7 0
8 9 5 11 -4 14 0 11 16 -3 16 0 20 10 16 9 -3 12 0 8 10 -3 8 1 14 11 14 9 0
16 5 16 11 0 5 -6 7 -12 3 -7 -4 -3 3 9 15 27 26 34 27 27 4 -3 -10 1 -7 9 6
10 16 16 20 21 12 5 -8 12 -9 19 -2 8 6 19 5 31 -5 10 -7 22 -12 25 -10 3 2
15 -6 26 -17 12 -11 14 -17 5 -13 -8 4 -7 1 3 -8 13 -10 17 -22 13 -38 -3 -13
-3 -17 0 -10 3 6 10 9 15 6 6 -3 5 -11 -2 -20 -9 -11 -9 -14 1 -14 7 0 10 -8
7 -19 -4 -15 0 -19 16 -15 12 2 24 -1 28 -7 4 -7 9 -5 12 6 5 10 3 14 -5 9 -7
-4 -8 -3 -4 5 4 6 11 9 16 6 12 -8 58 15 64 32 4 9 2 11 -6 7 -7 -4 -8 -3 -4
4 4 7 13 12 19 12 7 0 21 8 32 16 19 16 19 16 -5 10 -25 -6 -25 -6 -2 5 19 11
27 27 23 52 -1 4 6 10 14 13 8 3 12 11 9 16 -4 6 0 14 7 19 11 7 11 9 1 9 -7
0 -10 5 -7 10 4 6 9 8 13 6 11 -7 4 106 -7 117 -7 7 -6 17 0 30 6 11 7 17 1
13 -5 -3 -18 4 -28 16 -11 12 -14 19 -9 15 6 -3 11 4 12 16 0 12 -1 16 -4 10
-7 -19 -21 -16 -28 7 -4 11 -10 18 -15 15 -4 -3 -10 5 -13 16 -3 12 -10 18
-16 14 -10 -6 -16 8 -12 29 1 5 -5 3 -14 -4 -10 -8 -19 -10 -23 -4 -4 5 -18
11 -32 12 -14 2 -30 8 -36 13 -6 5 -14 6 -18 2 -11 -11 -60 -12 -73 -1 -8 7
-10 3 -7 -14 5 -21 4 -21 -6 -5 -11 17 -13 17 -30 2 -16 -15 -18 -14 -25 2
-15 34 -14 45 2 39 13 -5 14 -4 3 9 -10 12 -10 15 0 15 10 0 10 3 0 15 -11 13
-10 14 1 10 10 -4 15 1 15 15 0 11 -5 20 -11 20 -5 0 -3 5 5 10 12 8 12 10 1
10 -10 0 -11 3 -2 13 8 10 7 17 -1 25 -9 9 -9 12 2 12 9 1 4 7 -10 15 -14 8
-19 14 -11 15 7 0 11 6 8 15 -4 8 -2 17 4 20 12 8 2 25 -14 25 -7 0 -6 -4 3
-10 12 -7 10 -9 -7 -7 -21 1 -21 2 -6 19 14 16 14 18 1 18 -26 0 -45 68 -24
83 6 5 1 5 -11 2 -19 -5 -23 -2 -23 15 0 14 -4 19 -12 14 -10 -5 -10 -4 -1 6
9 10 6 18 -13 37 -14 14 -23 32 -20 40 3 8 1 11 -4 8 -6 -3 -10 3 -10 14 0 11
-10 27 -22 35 -12 9 -18 16 -13 16 5 0 0 7 -11 16 -10 8 -13 13 -7 9 8 -4 11
-1 7 9 -3 9 -11 14 -17 13 -7 -1 -11 3 -10 10 2 7 -3 10 -11 7 -8 -3 -17 0
-21 5 -3 6 -11 9 -16 5 -5 -3 -18 0 -27 8 -15 12 -16 11 -3 -4z m-991 -463
c-3 -3 -9 2 -12 12 -6 14 -5 15 5 6 7 -7 10 -15 7 -18z m117 -75 c3 -5 1 -10
-4 -10 -6 0 -11 5 -11 10 0 6 2 10 4 10 3 0 8 -4 11 -10z m-190 -200 c3 -5 1
-10 -4 -10 -6 0 -11 5 -11 10 0 6 2 10 4 10 3 0 8 -4 11 -10z m2815 2 c0 -4
-10 -13 -22 -21 -23 -14 -23 -14 -4 8 20 22 26 25 26 13z m-1200 -402 c0 -5
-5 -10 -11 -10 -5 0 -7 5 -4 10 3 6 8 10 11 10 2 0 4 -4 4 -10z m-1545 -59 c3
-5 2 -12 -3 -15 -5 -3 -9 1 -9 9 0 17 3 19 12 6z m1210 -130 c3 -5 2 -12 -3
-15 -5 -3 -9 1 -9 9 0 17 3 19 12 6z m-165 -173 c0 -6 6 -8 14 -5 20 8 28 -4
13 -21 -10 -13 -9 -14 11 -3 22 12 23 11 12 -9 -8 -14 -8 -20 -1 -16 5 4 21
-4 33 -16 13 -13 27 -22 31 -20 5 1 6 -2 3 -7 -3 -5 5 -12 19 -15 14 -4 24
-12 22 -18 -1 -7 5 -12 13 -13 8 0 14 -6 13 -11 -1 -6 4 -11 12 -11 8 0 12 4
9 9 -3 4 0 8 5 8 6 0 11 -4 11 -9 0 -5 10 -13 21 -16 17 -6 19 -9 8 -16 -9 -7
-5 -8 13 -3 14 3 35 1 46 -5 16 -9 24 -7 36 5 15 14 16 14 16 0 0 -9 -5 -16
-12 -16 -6 0 -8 -3 -4 -7 4 -5 14 1 22 11 8 11 14 15 14 9 0 -13 18 -12 39 1
9 6 12 5 8 -1 -4 -6 0 -14 9 -17 8 -3 12 -11 9 -16 -5 -8 -12 -7 -23 2 -13 11
-14 11 -7 -1 5 -9 4 -12 -3 -7 -6 3 -13 2 -17 -4 -4 -6 -11 -8 -16 -4 -5 3 -7
9 -4 14 3 4 -11 4 -30 0 -19 -4 -35 -6 -35 -3 0 3 -8 -1 -17 -8 -14 -12 -16
-12 -8 0 6 11 4 13 -10 7 -15 -5 -16 -4 -6 8 10 11 9 14 -1 12 -7 -1 -18 -5
-25 -9 -6 -4 -14 -3 -18 3 -3 5 -15 10 -26 10 -11 0 -18 4 -14 9 3 6 -4 8 -15
6 -11 -2 -18 0 -15 4 3 5 -2 12 -11 15 -8 3 -12 2 -9 -4 15 -24 -10 -7 -38 25
-17 20 -35 34 -41 32 -14 -6 -37 18 -28 29 4 5 -2 2 -12 -6 -13 -10 -17 -10
-12 -2 4 7 1 12 -9 12 -10 0 -13 5 -9 13 6 8 3 8 -9 -1 -9 -8 -21 -11 -26 -8
-6 4 -8 -2 -6 -14 3 -15 -1 -20 -13 -18 -9 2 -17 -2 -17 -9 0 -15 -15 -30 -15
-14 0 7 -4 10 -10 6 -5 -3 -7 -12 -3 -20 4 -11 1 -13 -11 -9 -10 4 -16 1 -16
-7 0 -7 -3 -9 -6 -6 -4 3 -16 1 -28 -5 -27 -16 -38 -16 -56 -4 -8 6 -6 0 5
-14 11 -14 16 -22 11 -18 -5 4 -16 2 -24 -5 -13 -9 -14 -9 -8 1 10 17 -5 15
-33 -5 -14 -9 -21 -11 -17 -5 4 7 1 12 -8 12 -8 0 -20 -8 -25 -17 -6 -10 -11
-13 -11 -6 0 15 -41 8 -52 -9 -6 -10 -8 -9 -8 4 0 9 -5 20 -12 24 -6 4 -8 3
-4 -4 3 -6 2 -13 -4 -17 -5 -3 -10 -2 -10 3 0 6 -6 12 -14 15 -10 4 -12 -1 -9
-16 4 -20 3 -20 -7 -4 -6 10 -16 14 -23 10 -16 -10 -57 -12 -52 -3 3 4 -4 10
-16 13 -17 5 -18 3 -8 -9 10 -12 9 -13 -5 -8 -20 8 -20 13 4 44 14 18 20 21
20 9 0 -9 7 -16 15 -16 11 0 12 4 3 14 -9 11 -7 12 8 7 10 -4 25 -12 33 -18
11 -8 13 -8 7 2 -4 6 -2 12 3 12 6 0 11 -6 11 -12 0 -9 4 -8 10 2 9 13 10 13
10 0 0 -13 1 -13 10 0 9 13 10 13 10 0 0 -13 1 -13 10 0 7 11 10 11 10 2 0 -8
5 -10 13 -5 20 12 37 12 37 0 1 -7 8 -1 16 13 8 14 13 17 10 8 -3 -12 0 -18
10 -18 8 0 12 5 9 10 -4 6 -3 10 2 9 25 -4 53 2 48 11 -4 6 -1 9 7 8 7 -2 12
3 10 10 -1 8 2 11 8 7 6 -3 7 -12 4 -18 -4 -7 2 -3 13 8 11 11 18 25 15 30 -3
6 3 3 13 -5 17 -14 18 -13 12 2 -4 12 -2 15 7 12 7 -3 16 2 20 11 3 10 13 15
21 12 9 -4 12 -1 8 9 -5 14 12 20 20 7 2 -5 2 -2 0 6 -2 9 2 11 14 7 14 -6 15
-4 6 5 -15 15 5 39 26 31 9 -3 12 -1 7 6 -7 11 6 17 28 13 5 -1 3 5 -4 14 -11
13 -10 15 4 9 9 -3 16 -11 16 -16z m-1375 -118 c-3 -5 -12 -10 -18 -10 -7 0
-6 4 3 10 19 12 23 12 15 0z m1456 -27 c13 -16 12 -17 -3 -4 -10 7 -18 15 -18
17 0 8 8 3 21 -13z m-1117 -440 c3 -7 -1 -10 -10 -6 -10 4 -12 0 -7 -13 6 -16
5 -17 -9 -6 -12 10 -17 10 -20 1 -6 -18 -36 -19 -42 -2 -9 22 3 35 26 27 11
-3 18 -2 15 2 -3 5 6 9 19 9 13 0 26 -5 28 -12z m-289 -383 c3 -5 1 -10 -4
-10 -6 0 -11 5 -11 10 0 6 2 10 4 10 3 0 8 -4 11 -10z m-1251 -685 c-4 -8 -11
-15 -16 -15 -6 0 -5 6 2 15 7 8 14 15 16 15 2 0 1 -7 -2 -15z m5157 -22 c12
-16 12 -17 -1 -7 -8 6 -22 14 -30 17 -13 5 -12 6 1 6 9 1 23 -7 30 -16z m1384
-2063 c3 -5 1 -10 -4 -10 -6 0 -11 5 -11 10 0 6 2 10 4 10 3 0 8 -4 11 -10z
m162 -1135 c0 -8 -4 -12 -9 -9 -5 3 -6 10 -3 15 9 13 12 11 12 -6z m-8207
-799 c0 -3 -4 -8 -10 -11 -5 -3 -10 -1 -10 4 0 6 5 11 10 11 6 0 10 -2 10 -4z
m-470 -1496 c0 -5 -5 -10 -11 -10 -5 0 -7 5 -4 10 3 6 8 10 11 10 2 0 4 -4 4
-10z m-270 -170 c0 -5 -5 -10 -11 -10 -5 0 -7 5 -4 10 3 6 8 10 11 10 2 0 4
-4 4 -10z m-109 -73 c-10 -9 -11 -8 -5 6 3 10 9 15 12 12 3 -3 0 -11 -7 -18z
m10053 -165 c3 -5 -1 -9 -9 -9 -8 0 -12 4 -9 9 3 4 7 8 9 8 2 0 6 -4 9 -8z
m85 -108 c-6 -8 -15 -12 -18 -8 -3 4 0 9 7 11 6 3 9 10 6 15 -4 7 -2 8 5 4 9
-6 9 -11 0 -22z m-9534 -132 c-3 -3 -11 0 -18 7 -9 10 -8 11 6 5 10 -3 15 -9
12 -12z m1720 -392 c-5 -15 -3 -18 9 -14 9 3 13 11 9 18 -4 8 -2 8 7 -1 7 -6
20 -9 29 -5 14 5 14 3 -1 -12 -21 -21 -22 -23 -6 -32 6 -4 8 -3 4 4 -3 6 -1
14 6 18 7 4 10 4 6 -1 -4 -4 -3 -17 3 -28 6 -10 7 -17 2 -14 -5 3 -9 -3 -9
-13 0 -14 3 -16 13 -8 10 8 13 2 14 -28 1 -22 1 -42 0 -46 0 -5 5 -8 12 -8 7
0 4 -7 -7 -15 -18 -14 -12 -20 15 -17 4 1 5 -13 2 -31 -2 -18 -4 -38 -5 -44
-1 -7 -5 -13 -10 -13 -5 0 -6 -5 -2 -12 4 -7 3 -8 -5 -4 -6 4 -9 13 -5 19 3 7
-1 4 -9 -5 -8 -10 -17 -15 -20 -12 -3 3 -15 1 -26 -6 -15 -8 -21 -8 -21 0 0 6
-6 8 -12 4 -8 -5 -7 -1 1 10 13 16 13 18 0 16 -35 -5 -43 0 -23 16 10 8 13 13
7 9 -12 -6 -18 8 -13 30 6 27 -1 83 -14 104 -6 10 -5 12 2 7 7 -4 13 -1 14 6
0 7 2 18 2 23 3 19 17 35 27 30 5 -4 9 -1 9 5 0 7 -7 10 -15 7 -8 -4 -17 -1
-21 5 -4 7 -3 8 4 4 11 -6 18 19 13 47 0 4 4 7 10 7 6 0 8 -9 4 -20z m-39 -75
c1 -14 -2 -25 -6 -25 -6 0 -7 36 -1 48 4 7 6 -1 7 -23z m5378 -35 c3 0 8 5 12
12 5 7 2 8 -7 3 -12 -7 -12 -5 -1 6 11 12 14 12 22 -1 5 -8 6 -19 2 -25 -3 -5
2 -4 11 4 15 12 17 12 11 -4 -6 -14 -4 -16 7 -10 10 7 9 2 -3 -17 -10 -15 -14
-29 -10 -32 5 -3 7 -19 4 -35 -3 -20 -8 -28 -16 -24 -6 4 -5 -1 3 -10 12 -16
8 -22 -12 -18 -5 1 -6 -3 -2 -9 3 -6 10 -8 14 -5 5 2 8 -9 7 -24 -1 -20 -4
-26 -12 -20 -8 6 -10 2 -7 -15 3 -13 0 -27 -6 -30 -7 -5 -8 -1 -4 11 6 17 6
17 -14 0 -18 -16 -22 -16 -33 -2 -7 8 -17 12 -24 8 -21 -14 -38 -13 -26 2 8
10 7 13 -7 11 -11 -1 -17 6 -17 22 0 12 4 21 9 20 6 -2 9 -7 7 -11 -1 -5 2 -6
8 -2 13 8 -10 46 -25 39 -5 -3 -3 0 6 8 9 7 14 19 11 27 -3 9 0 11 8 6 9 -6
11 -4 5 6 -12 18 -14 49 -3 43 4 -3 8 0 8 5 0 6 -6 11 -12 11 -10 0 -9 3 1 9
8 5 10 14 5 22 -6 11 -5 11 9 0 16 -13 17 -12 8 12 -10 26 1 48 14 27 10 -16
25 -12 26 8 0 13 2 12 9 -5 5 -13 11 -23 14 -23z m-410 -65 c-17 -12 -15 -13
19 -5 20 4 37 4 37 0 0 -5 8 -6 19 -3 10 3 22 0 26 -7 5 -8 11 -7 23 2 12 10
14 10 8 1 -4 -7 -3 -13 1 -13 5 0 15 6 22 13 11 10 13 10 7 0 -4 -7 -2 -13 3
-13 20 0 26 -3 38 -19 9 -12 9 -18 0 -23 -9 -6 -9 -8 0 -8 7 0 12 -11 11 -24
-1 -14 -6 -22 -10 -20 -4 3 -8 -2 -8 -12 0 -14 -3 -14 -15 -4 -9 7 -18 10 -22
6 -3 -3 -1 -6 5 -6 7 0 12 -4 12 -10 0 -11 -32 -1 -42 14 -5 7 -8 7 -8 -1 0
-7 -5 -13 -11 -13 -5 0 -8 4 -5 8 2 4 -6 9 -20 10 -13 1 -24 -4 -24 -11 0 -8
-4 -7 -10 3 -8 12 -13 13 -29 3 -17 -11 -19 -10 -14 2 4 13 1 14 -21 5 -14 -5
-25 -6 -23 -2 1 4 -1 7 -4 7 -3 0 -14 7 -24 15 -11 9 -16 10 -11 3 4 -7 3 -13
-3 -13 -5 0 -13 5 -16 10 -4 6 -10 8 -15 5 -5 -3 -11 -1 -15 4 -3 6 4 8 16 6
18 -4 19 -2 7 12 -9 12 -9 15 0 9 8 -4 12 -1 12 9 0 11 5 15 16 11 8 -3 12 -2
9 4 -3 6 -2 10 4 10 6 0 8 7 5 15 -5 11 -2 13 10 9 10 -4 16 -1 16 8 0 7 10
14 21 15 21 2 21 1 3 -12z m226 -35 c0 -5 -5 -10 -11 -10 -5 0 -7 5 -4 10 3 6
8 10 11 10 2 0 4 -4 4 -10z m-6040 -120 c0 -5 -5 -10 -11 -10 -5 0 -7 5 -4 10
3 6 8 10 11 10 2 0 4 -4 4 -10z m4787 -312 c-3 -8 -6 -5 -6 6 -1 11 2 17 5 13
3 -3 4 -12 1 -19z m1083 -60 c0 -6 -6 -5 -15 2 -8 7 -15 14 -15 16 0 2 7 1 15
-2 8 -4 15 -11 15 -16z m-1328 -10 c-7 -7 -12 -8 -12 -2 0 14 12 26 19 19 2
-3 -1 -11 -7 -17z m-3856 -50 c4 -7 4 -10 -1 -6 -4 4 -14 3 -21 -3 -8 -7 -14
-6 -20 2 -4 7 -3 9 4 5 6 -3 13 -2 17 4 8 13 12 13 21 -2z"/>
<path d="M5466 9158 c3 -5 10 -6 15 -3 13 9 11 12 -6 12 -8 0 -12 -4 -9 -9z"/>
<path d="M6043 9146 c0 -7 6 -13 14 -13 7 0 13 4 13 8 0 4 -6 9 -13 12 -8 3
-14 0 -14 -7z"/>
<path d="M6136 9133 c-6 -14 -5 -15 5 -6 7 7 10 15 7 18 -3 3 -9 -2 -12 -12z"/>
<path d="M4630 8766 c0 -2 8 -10 18 -17 15 -13 16 -12 3 4 -13 16 -21 21 -21
13z"/>
<path d="M3165 1129 c-4 -6 -5 -12 -2 -15 2 -3 7 2 10 11 7 17 1 20 -8 4z"/>
<path d="M5750 10859 c0 -5 5 -7 10 -4 6 3 10 8 10 11 0 2 -4 4 -10 4 -5 0
-10 -5 -10 -11z"/>
<path d="M4600 10770 c0 -7 -3 -11 -6 -7 -4 3 -14 -2 -23 -11 -9 -10 -13 -13
-9 -7 4 6 -1 11 -12 11 -10 0 -16 -4 -13 -9 3 -4 -3 -15 -13 -23 -11 -9 -12
-12 -4 -8 10 5 8 0 -4 -15 -21 -23 -29 -61 -13 -61 5 0 4 -7 -3 -15 -10 -12
-10 -15 4 -15 9 0 15 -3 14 -7 -1 -5 4 -18 11 -31 11 -20 15 -21 29 -10 13 11
15 11 10 -2 -5 -15 -2 -15 91 -11 7 1 11 7 8 15 -4 10 -1 13 7 10 8 -3 16 4
19 16 4 15 10 19 19 15 10 -6 10 -5 1 5 -9 10 -8 18 4 36 14 22 14 24 -3 25
-18 0 -18 1 1 9 18 8 18 9 -5 10 -22 1 -23 2 -6 9 18 7 18 8 2 14 -10 4 -14
12 -10 19 5 7 0 9 -14 6 -12 -3 -20 -2 -19 4 1 5 -8 17 -21 25 -21 15 -22 14
-16 -3 5 -18 5 -18 -10 0 -11 13 -16 15 -16 6z m-50 -195 c0 -8 -2 -15 -4 -15
-2 0 -6 7 -10 15 -3 8 -1 15 4 15 6 0 10 -7 10 -15z"/>
<path d="M6816 10758 c5 -7 3 -8 -6 -3 -7 4 -16 2 -21 -6 -4 -8 -14 -14 -21
-14 -7 -1 -12 -6 -10 -13 1 -7 -3 -12 -9 -12 -6 0 -8 -7 -5 -16 3 -8 2 -13 -3
-10 -5 3 -12 -1 -15 -10 -3 -8 -2 -12 3 -9 5 3 12 1 16 -5 3 -5 -2 -10 -12
-10 -17 -1 -17 -1 0 -14 20 -15 23 -31 5 -20 -7 3 -1 -6 15 -20 16 -16 24 -32
20 -39 -4 -7 2 -5 12 3 10 8 16 10 12 4 -11 -19 60 -23 85 -5 18 12 20 12 14
0 -4 -8 -1 -5 8 6 8 11 22 28 32 37 9 9 13 21 9 27 -3 6 0 11 7 12 7 0 4 4 -7
9 -19 8 -19 9 -1 9 17 1 18 3 4 19 -25 29 -33 46 -17 37 8 -4 4 2 -8 14 -12
11 -27 21 -33 21 -5 0 -10 6 -10 13 0 8 -4 7 -10 -3 -6 -10 -10 -11 -10 -2 0
6 -12 12 -26 12 -16 0 -23 -4 -18 -12z"/>
<path d="M5603 10723 c4 -3 -1 -16 -10 -27 -18 -21 -18 -21 4 -2 20 16 23 36
6 36 -4 0 -3 -3 0 -7z"/>
<path d="M3587 10657 c-3 -9 -11 -17 -17 -17 -6 0 -8 5 -4 12 4 7 3 8 -4 4 -7
-4 -12 -13 -12 -19 -1 -7 -12 -25 -26 -42 -15 -16 -23 -24 -19 -16 6 9 4 12
-4 7 -6 -4 -8 -13 -4 -19 13 -21 13 -58 0 -50 -7 4 -6 0 2 -10 15 -18 26 -23
16 -7 -3 6 -1 10 6 10 6 0 9 -8 6 -20 -3 -13 -1 -18 6 -13 6 4 8 0 4 -10 -4
-12 -2 -14 10 -10 12 5 14 3 8 -7 -6 -9 -4 -11 5 -5 7 4 16 2 21 -6 5 -9 9
-10 9 -2 0 15 29 10 40 -7 6 -9 9 -8 14 8 4 11 14 23 23 26 12 5 13 3 7 -7 -5
-7 -1 -4 10 8 10 11 22 19 26 18 5 -1 6 6 3 17 -3 11 -10 17 -16 13 -6 -3 -7
-1 -3 5 4 6 12 9 20 6 7 -3 13 2 13 10 0 8 -5 12 -11 9 -6 -4 -5 1 3 10 7 9 9
17 3 17 -5 0 -13 7 -16 16 -6 15 -4 15 11 4 10 -8 5 0 -12 16 -16 16 -33 28
-38 26 -5 -1 -6 2 -3 7 3 5 0 13 -7 19 -15 11 -48 12 -41 0 3 -4 1 -8 -5 -8
-5 0 -11 5 -13 12 -3 7 -7 6 -11 -5z m63 -7 c0 -5 -2 -10 -4 -10 -3 0 -8 5
-11 10 -3 6 -1 10 4 10 6 0 11 -4 11 -10z"/>
<path d="M3525 10629 c-4 -6 -5 -12 -2 -15 2 -3 7 2 10 11 7 17 1 20 -8 4z"/>
<path d="M7955 10561 c6 -11 3 -13 -11 -9 -21 5 -47 -15 -36 -28 4 -5 -1 -2
-11 5 -15 12 -17 12 -10 -4 5 -15 3 -17 -12 -11 -11 4 -16 4 -13 0 4 -4 3 -15
-3 -25 -6 -13 -6 -19 0 -19 6 0 8 -13 5 -30 -5 -22 -3 -30 7 -30 11 0 11 -2
-1 -10 -12 -8 -12 -10 3 -16 9 -3 17 -13 17 -21 0 -8 5 -11 10 -8 6 3 10 0 10
-9 0 -15 16 -16 39 -2 9 6 12 5 8 -1 -4 -6 0 -14 9 -17 8 -3 12 -2 9 3 -3 5
-1 12 5 16 5 3 10 1 10 -5 0 -6 5 -8 10 -5 6 4 7 12 3 18 -4 7 2 5 13 -3 10
-8 16 -10 12 -6 -5 5 1 15 12 23 11 8 20 23 20 34 0 12 4 17 11 13 8 -4 8 0 0
15 -9 16 -9 21 0 21 8 0 8 4 2 13 -6 6 -9 20 -8 30 2 11 -3 17 -15 17 -10 0
-22 4 -25 10 -4 6 1 7 12 3 15 -6 16 -5 3 9 -8 9 -17 14 -19 12 -2 -2 -13 4
-23 13 -18 16 -18 16 -12 -3 7 -18 7 -18 -16 1 -13 11 -20 14 -15 6z"/>
<path d="M5940 10546 c0 -2 7 -9 15 -16 13 -11 14 -10 9 4 -5 14 -24 23 -24
12z"/>
<path d="M6743 10415 c0 -8 4 -12 9 -9 5 3 6 10 3 15 -9 13 -12 11 -12 -6z"/>
<path d="M7615 10241 c-3 -5 -2 -12 3 -15 5 -3 9 1 9 9 0 17 -3 19 -12 6z"/>
<path d="M6436 10165 c-3 -8 -1 -15 4 -15 13 0 22 18 11 24 -5 3 -11 -1 -15
-9z"/>
<path d="M7806 10162 c-3 -5 1 -9 9 -9 8 0 15 4 15 9 0 4 -4 8 -9 8 -6 0 -12
-4 -15 -8z"/>
<path d="M6980 9890 c-9 -6 -10 -10 -3 -10 6 0 15 5 18 10 8 12 4 12 -15 0z"/>
<path d="M5365 9800 c-3 -5 -2 -10 4 -10 5 0 13 5 16 10 3 6 2 10 -4 10 -5 0
-13 -4 -16 -10z"/>
<path d="M5545 9540 c-3 -6 1 -7 9 -4 18 7 21 14 7 14 -6 0 -13 -4 -16 -10z"/>
<path d="M5460 9429 c0 -5 5 -7 10 -4 6 3 10 8 10 11 0 2 -4 4 -10 4 -5 0 -10
-5 -10 -11z"/>
<path d="M7180 9340 c-9 -6 -10 -10 -3 -10 6 0 15 5 18 10 8 12 4 12 -15 0z"/>
<path d="M6430 9180 c0 -5 5 -10 10 -10 6 0 10 5 10 10 0 6 -4 10 -10 10 -5 0
-10 -4 -10 -10z"/>
<path d="M5095 9169 c-4 -6 -5 -12 -2 -15 2 -3 7 2 10 11 7 17 1 20 -8 4z"/>
<path d="M6556 9167 c3 -10 9 -15 12 -12 3 3 0 11 -7 18 -10 9 -11 8 -5 -6z"/>
<path d="M6684 9069 c-4 -7 -3 -9 4 -5 5 3 13 0 15 -6 4 -9 6 -10 6 -1 1 17
-16 25 -25 12z"/>
<path d="M4840 9060 c-8 -5 -12 -12 -9 -15 4 -3 12 1 19 10 14 17 11 19 -10 5z"/>
<path d="M6645 9059 c-4 -6 -4 -13 -1 -16 3 -4 6 -1 6 6 0 7 5 9 12 5 7 -4 8
-3 4 4 -9 15 -13 15 -21 1z"/>
<path d="M4135 9049 c-4 -6 -5 -12 -2 -15 2 -3 7 2 10 11 7 17 1 20 -8 4z"/>
<path d="M6996 8438 c3 -5 10 -6 15 -3 13 9 11 12 -6 12 -8 0 -12 -4 -9 -9z"/>
<path d="M7750 8080 c0 -5 5 -10 11 -10 5 0 7 5 4 10 -3 6 -8 10 -11 10 -2 0
-4 -4 -4 -10z"/>
<path d="M2340 7446 c0 -2 8 -10 18 -17 15 -13 16 -12 3 4 -13 16 -21 21 -21
13z"/>
<path d="M8765 7280 c3 -5 8 -10 11 -10 2 0 4 5 4 10 0 6 -5 10 -11 10 -5 0
-7 -4 -4 -10z"/>
<path d="M2318 7233 c7 -3 16 -2 19 1 4 3 -2 6 -13 5 -11 0 -14 -3 -6 -6z"/>
<path d="M2326 6834 c-5 -14 -4 -15 9 -4 17 14 19 20 6 20 -5 0 -12 -7 -15
-16z"/>
<path d="M9305 6560 c3 -5 8 -10 11 -10 2 0 4 5 4 10 0 6 -5 10 -11 10 -5 0
-7 -4 -4 -10z"/>
<path d="M1872 6015 c4 -4 3 -14 -4 -22 -8 -11 -8 -17 2 -26 10 -9 11 -9 6 1
-4 7 -3 19 4 27 8 10 8 15 -2 21 -7 4 -10 4 -6 -1z"/>
<path d="M1573 4685 c0 -8 4 -12 9 -9 5 3 6 10 3 15 -9 13 -12 11 -12 -6z"/>
<path d="M1575 4631 c-3 -5 -2 -12 3 -15 5 -3 9 1 9 9 0 17 -3 19 -12 6z"/>
<path d="M1790 3120 c0 -5 5 -10 11 -10 5 0 7 5 4 10 -3 6 -8 10 -11 10 -2 0
-4 -4 -4 -10z"/>
<path d="M1420 1239 c0 -5 5 -7 10 -4 6 3 10 8 10 11 0 2 -4 4 -10 4 -5 0 -10
-5 -10 -11z"/>
<path d="M3486 465 c-11 -8 -15 -15 -9 -15 6 0 16 7 23 15 16 19 11 19 -14 0z"/>
<path d="M5590 295 c0 -7 30 -13 34 -7 3 4 -4 9 -15 9 -10 1 -19 0 -19 -2z"/>
</g>
</svg>
